<svg width="30" height="30" viewBox="0 0 30 30" fill="none" xmlns="http://www.w3.org/2000/svg">
<path d="M15 16.8978C5.98609 16.8978 1.02185 21.162 1.02185 28.9051C1.02185 29.5099 1.51199 30 2.11673 30H27.8832C28.4879 30 28.978 29.5099 28.978 28.9051C28.9781 21.1624 24.0139 16.8978 15 16.8978ZM3.25146 27.8102C3.68212 22.0208 7.62917 19.0876 15 19.0876C22.3708 19.0876 26.3179 22.0208 26.7489 27.8102H3.25146Z" fill="black" fill-opacity="0.36"/>
<path d="M14.9999 0C10.8594 0 7.73718 3.18504 7.73718 7.40842C7.73718 11.7555 10.9952 15.2916 14.9999 15.2916C19.0046 15.2916 22.2627 11.7555 22.2627 7.40877C22.2627 3.18504 19.1405 0 14.9999 0ZM14.9999 13.1022C12.2025 13.1022 9.92695 10.5482 9.92695 7.40877C9.92695 4.38469 12.0605 2.18977 14.9999 2.18977C17.8923 2.18977 20.0729 4.4332 20.0729 7.40877C20.0729 10.5482 17.7974 13.1022 14.9999 13.1022Z" fill="black" fill-opacity="0.36"/>
</svg>
