<svg width="20" height="20" viewBox="0 0 20 20" fill="none" xmlns="http://www.w3.org/2000/svg">
<path d="M2.92917 19.0627C3.05932 19.1348 3.20641 19.1707 3.35515 19.1667C3.50389 19.1628 3.64886 19.1191 3.775 19.0402L10 15.1493L16.225 19.0402C16.3511 19.119 16.4961 19.1626 16.6448 19.1665C16.7935 19.1704 16.9405 19.1345 17.0706 19.0624C17.2007 18.9903 17.3092 18.8846 17.3847 18.7565C17.4602 18.6283 17.5 18.4823 17.5 18.3335V3.3335C17.5 2.67045 17.2366 2.03457 16.7678 1.56573C16.2989 1.09689 15.663 0.833496 15 0.833496H5C4.33696 0.833496 3.70107 1.09689 3.23223 1.56573C2.76339 2.03457 2.5 2.67045 2.5 3.3335V18.3335C2.49993 18.4823 2.53969 18.6284 2.61516 18.7566C2.69063 18.8848 2.79905 18.9905 2.92917 19.0627ZM4.16667 3.3335C4.16667 3.11248 4.25446 2.90052 4.41074 2.74424C4.56702 2.58796 4.77899 2.50016 5 2.50016H15C15.221 2.50016 15.433 2.58796 15.5893 2.74424C15.7455 2.90052 15.8333 3.11248 15.8333 3.3335V16.8335L10.4417 13.4635C10.3092 13.3807 10.1562 13.3368 10 13.3368C9.84382 13.3368 9.69078 13.3807 9.55833 13.4635L4.16667 16.8335V3.3335Z" fill="black" fill-opacity="0.2"/>
</svg>
