<svg width="27" height="27" viewBox="0 0 27 27" fill="none" xmlns="http://www.w3.org/2000/svg">
<ellipse cx="13.5" cy="13.0957" rx="13.5" ry="13" fill="#E84118"/>
<path d="M13.5 8.5957L13.5 21.429" stroke="white" stroke-width="1.5" stroke-linecap="round"/>
<path d="M8.23299 6.10735C11.1565 6.6905 12.899 7.91032 13.5 8.61063C14.101 7.91032 15.8435 6.6905 18.767 6.10735C20.2481 5.81193 20.9886 5.66421 21.6193 6.23038C22.25 6.79654 22.25 7.71591 22.25 9.55464V16.1628C22.25 17.844 22.25 18.6846 21.8452 19.2095C21.4405 19.7343 20.5493 19.9121 18.767 20.2676C17.1782 20.5845 15.9382 21.0894 15.0407 21.5968C14.1577 22.0961 13.7161 22.3457 13.5 22.3457C13.2839 22.3457 12.8423 22.0961 11.9593 21.5968C11.0618 21.0894 9.82179 20.5845 8.23299 20.2676C6.45069 19.9121 5.55955 19.7343 5.15477 19.2095C4.75 18.6846 4.75 17.844 4.75 16.1628V9.55464C4.75 7.71591 4.75 6.79654 5.38069 6.23038C6.01137 5.66421 6.75191 5.81193 8.23299 6.10735Z" stroke="white" stroke-width="1.5" stroke-linecap="round" stroke-linejoin="round"/>
</svg>
