<svg width="22" height="28" viewBox="0 0 22 28" fill="none" xmlns="http://www.w3.org/2000/svg">
<path d="M11 7.38428L11 22.8073" stroke="#787878" stroke-width="1.5" stroke-linecap="round"/>
<path d="M5.48234 4.39379C8.5451 5.09462 10.3705 6.56059 11.0002 7.40222C11.6298 6.56059 13.4552 5.09462 16.518 4.39379C18.0696 4.03875 18.8454 3.86123 19.5061 4.54164C20.1668 5.22205 20.1668 6.32695 20.1668 8.53673V16.4783C20.1668 18.4989 20.1668 19.5091 19.7428 20.1399C19.3187 20.7706 18.3852 20.9842 16.518 21.4115C14.8535 21.7924 13.5545 22.3992 12.6142 23.009C11.6891 23.609 11.2266 23.909 11.0002 23.909C10.7738 23.909 10.3112 23.609 9.38608 23.009C8.44582 22.3992 7.1468 21.7924 5.48234 21.4115C3.61518 20.9842 2.68159 20.7706 2.25754 20.1399C1.8335 19.5091 1.8335 18.4989 1.8335 16.4783V8.53673C1.8335 6.32695 1.8335 5.22205 2.49421 4.54164C3.15493 3.86123 3.93074 4.03875 5.48234 4.39379Z" stroke="#787878" stroke-width="1.5" stroke-linecap="round" stroke-linejoin="round"/>
</svg>
