<svg xmlns="http://www.w3.org/2000/svg" xmlns:xlink="http://www.w3.org/1999/xlink" version="1.1" x="0px" y="0px" viewBox="0 0 48 60" style="enable-background:new 0 0 48 48;" xml:space="preserve"><g><g><g><g><g><path d="M45.455,18.189h-6.258c-0.247,0-0.447-0.2-0.447-0.447c0-0.247,0.2-0.447,0.447-0.447h6.258       c0.247,0,0.447,0.2,0.447,0.447C45.902,17.989,45.702,18.189,45.455,18.189z"/></g></g></g></g><g><g><g><g><path d="M45.455,45.902H2.545c-0.247,0-0.447-0.2-0.447-0.447s0.2-0.447,0.447-0.447h42.91c0.247,0,0.447,0.2,0.447,0.447       S45.702,45.902,45.455,45.902z"/></g></g></g></g><g><g><g><g><path d="M41.879,45.902H6.121c-0.247,0-0.447-0.2-0.447-0.447c0-2.218,1.805-4.023,4.023-4.023h1.788       c0.247,0,0.447,0.2,0.447,0.447s-0.2,0.447-0.447,0.447H9.697c-1.573,0-2.879,1.168-3.097,2.682h34.802       c-0.218-1.514-1.524-2.682-3.097-2.682H14.166c-0.247,0-0.447-0.2-0.447-0.447s0.2-0.447,0.447-0.447h24.137       c2.218,0,4.023,1.805,4.023,4.023C42.326,45.702,42.126,45.902,41.879,45.902z"/></g></g></g></g><g><g><g><g><path d="M32.94,42.326h-3.576c-0.12,0-0.236-0.048-0.32-0.135c-0.084-0.086-0.129-0.203-0.127-0.323l0.894-35.759       c0.006-0.242,0.204-0.436,0.447-0.436h1.788c0.243,0,0.441,0.193,0.447,0.436l0.179,7.152c0.006,0.247-0.189,0.452-0.436,0.458       c-0.273,0.01-0.452-0.189-0.458-0.436L31.61,6.568h-0.917l-0.871,34.865h2.659L31.867,16.86       c-0.006-0.247,0.189-0.452,0.436-0.458c0.004,0,0.008,0,0.011,0c0.242,0,0.441,0.193,0.447,0.436l0.626,25.031       c0.003,0.12-0.043,0.237-0.127,0.323C33.175,42.278,33.06,42.326,32.94,42.326z"/></g></g></g></g><g><g><g><g><path d="M23.105,42.326c-0.209,0-0.395-0.147-0.437-0.359l-0.229-1.132c-0.805-3.956-1.565-7.692-1.537-15.571       c0.024-6.655,3.315-13.102,9.031-17.688c0.191-0.153,0.474-0.124,0.628,0.069c0.155,0.192,0.124,0.474-0.069,0.629       c-5.504,4.416-8.674,10.61-8.696,16.994c-0.028,7.787,0.724,11.48,1.519,15.389l0.23,1.135       c0.049,0.242-0.108,0.478-0.351,0.526C23.165,42.324,23.135,42.326,23.105,42.326z"/></g></g></g></g><g><g><g><g><path d="M32.046,6.568c-0.247,0-0.447-0.2-0.447-0.447V2.545c0-0.247,0.2-0.447,0.447-0.447c0.247,0,0.447,0.2,0.447,0.447       v3.576C32.493,6.368,32.293,6.568,32.046,6.568z"/></g></g></g></g><g><g><g><g><path d="M30.073,13.719h-3.391c-0.247,0-0.447-0.2-0.447-0.447s0.2-0.447,0.447-0.447h3.391c0.247,0,0.447,0.2,0.447,0.447       S30.32,13.719,30.073,13.719z"/></g></g></g></g><g><g><g><g><path d="M30.034,15.507h-4.246c-0.247,0-0.447-0.2-0.447-0.447c0-0.247,0.2-0.447,0.447-0.447h4.246       c0.247,0,0.447,0.2,0.447,0.447C30.481,15.307,30.281,15.507,30.034,15.507z"/></g></g></g></g><g><g><g><g><path d="M29.945,19.083h-7.443c-0.247,0-0.447-0.2-0.447-0.447s0.2-0.447,0.447-0.447h7.443c0.247,0,0.447,0.2,0.447,0.447       S30.192,19.083,29.945,19.083z"/></g></g></g></g><g><g><g><g><path d="M29.878,21.765h-8.129c-0.247,0-0.447-0.2-0.447-0.447c0-0.247,0.2-0.447,0.447-0.447h8.129       c0.247,0,0.447,0.2,0.447,0.447C30.325,21.565,30.125,21.765,29.878,21.765z"/></g></g></g></g><g><g><g><g><path d="M29.811,24.447h-8.417c-0.247,0-0.447-0.2-0.447-0.447s0.2-0.447,0.447-0.447h8.417c0.247,0,0.447,0.2,0.447,0.447       S30.058,24.447,29.811,24.447z"/></g></g></g></g><g><g><g><g><path d="M29.744,27.129h-8.391c-0.247,0-0.447-0.2-0.447-0.447c0-0.247,0.2-0.447,0.447-0.447h8.391       c0.247,0,0.447,0.2,0.447,0.447C30.191,26.929,29.991,27.129,29.744,27.129z"/></g></g></g></g><g><g><g><g><path d="M29.671,29.811h-8.254c-0.247,0-0.447-0.2-0.447-0.447s0.2-0.447,0.447-0.447h8.254c0.247,0,0.447,0.2,0.447,0.447       S29.918,29.811,29.671,29.811z"/></g></g></g></g><g><g><g><g><path d="M29.61,32.493h-8.031c-0.247,0-0.447-0.2-0.447-0.447c0-0.247,0.2-0.447,0.447-0.447h8.031       c0.247,0,0.447,0.2,0.447,0.447C30.057,32.293,29.857,32.493,29.61,32.493z"/></g></g></g></g><g><g><g><g><path d="M29.543,35.175h-7.71c-0.247,0-0.447-0.2-0.447-0.447s0.2-0.447,0.447-0.447h7.71c0.247,0,0.447,0.2,0.447,0.447       S29.79,35.175,29.543,35.175z"/></g></g></g></g><g><g><g><g><path d="M29.472,37.857h-7.24c-0.247,0-0.447-0.2-0.447-0.447s0.2-0.447,0.447-0.447h7.24c0.247,0,0.447,0.2,0.447,0.447       S29.719,37.857,29.472,37.857z"/></g></g></g></g><g><g><g><g><path d="M29.403,40.538h-6.659c-0.247,0-0.447-0.2-0.447-0.447c0-0.247,0.2-0.447,0.447-0.447h6.659       c0.247,0,0.447,0.2,0.447,0.447C29.85,40.338,29.65,40.538,29.403,40.538z"/></g></g></g></g><g><g><g><g><path d="M34.728,15.507h-2.682c-0.247,0-0.447-0.2-0.447-0.447c0-0.247,0.2-0.447,0.447-0.447h2.406l0.447-0.894h-3.747       c-0.247,0-0.447-0.2-0.447-0.447s0.2-0.447,0.447-0.447h4.47c0.155,0,0.299,0.08,0.381,0.212       c0.081,0.132,0.088,0.296,0.019,0.435l-0.894,1.788C35.052,15.412,34.897,15.507,34.728,15.507z"/></g></g></g></g><g><g><g><g><path d="M18.636,15.507h-0.894c-0.119,0-0.232-0.047-0.316-0.131l-1.788-1.788c-0.127-0.128-0.166-0.32-0.097-0.487       c0.069-0.167,0.232-0.276,0.413-0.276h3.576c0.247,0,0.447,0.2,0.447,0.447s-0.2,0.447-0.447,0.447h-2.497l0.894,0.894h0.709       c0.247,0,0.447,0.2,0.447,0.447C19.083,15.307,18.883,15.507,18.636,15.507z"/></g></g></g></g><g><g><g><g><path d="M23.106,42.326h-5.364c-0.192,0-0.363-0.123-0.424-0.306c-1.2-3.599-1.977-6.76-2.309-9.395       c-0.33-2.611-0.233-5.242,0.288-7.821c0.049-0.243,0.287-0.4,0.526-0.35c0.243,0.049,0.399,0.285,0.35,0.527       c-0.502,2.483-0.595,5.017-0.278,7.532c0.316,2.502,1.046,5.501,2.169,8.918h4.494l-0.12-0.598       c-0.805-3.956-1.565-7.692-1.538-15.571c0.021-5.813,2.535-11.468,6.981-15.861c-5.173,2.599-9.144,7.243-11.013,12.949       c-0.077,0.234-0.33,0.361-0.564,0.285c-0.235-0.077-0.363-0.329-0.286-0.564c2.121-6.47,6.842-11.627,12.953-14.15       c0.359-0.148,0.723-0.288,1.092-0.419c0.205-0.073,0.434,0.013,0.54,0.203c0.107,0.191,0.059,0.43-0.111,0.567       c-5.503,4.416-8.674,10.61-8.697,16.994c-0.027,7.787,0.725,11.479,1.52,15.389l0.23,1.135       c0.026,0.131-0.008,0.268-0.093,0.371S23.24,42.326,23.106,42.326z"/></g></g></g></g><g><g><g><g><path d="M28.47,21.765h-1.788c-0.247,0-0.447-0.2-0.447-0.447v-2.682c0-0.247,0.2-0.447,0.447-0.447h1.788       c0.247,0,0.447,0.2,0.447,0.447v2.682C28.917,21.565,28.717,21.765,28.47,21.765z M27.129,20.871h0.894v-1.788h-0.894V20.871z"/></g></g></g></g><g><g><g><g><path d="M28.47,27.129h-1.788c-0.247,0-0.447-0.2-0.447-0.447V24c0-0.247,0.2-0.447,0.447-0.447h1.788       c0.247,0,0.447,0.2,0.447,0.447v2.682C28.917,26.929,28.717,27.129,28.47,27.129z M27.129,26.235h0.894v-1.788h-0.894V26.235z"/></g></g></g></g><g><g><g><g><path d="M27.576,32.493h-1.788c-0.247,0-0.447-0.2-0.447-0.447v-2.682c0-0.247,0.2-0.447,0.447-0.447h1.788       c0.247,0,0.447,0.2,0.447,0.447v2.682C28.023,32.293,27.823,32.493,27.576,32.493z M26.235,31.599h0.894v-1.788h-0.894V31.599z       "/></g></g></g></g><g><g><g><g><path d="M27.576,37.857h-1.788c-0.247,0-0.447-0.2-0.447-0.447v-2.682c0-0.247,0.2-0.447,0.447-0.447h1.788       c0.247,0,0.447,0.2,0.447,0.447v2.682C28.023,37.657,27.823,37.857,27.576,37.857z M26.235,36.963h0.894v-1.788h-0.894V36.963z       "/></g></g></g></g><g><g><g><g><path d="M25.788,29.811H24c-0.247,0-0.447-0.2-0.447-0.447v-2.682c0-0.247,0.2-0.447,0.447-0.447h1.788       c0.247,0,0.447,0.2,0.447,0.447v2.682C26.235,29.611,26.035,29.811,25.788,29.811z M24.447,28.917h0.894v-1.788h-0.894V28.917z       "/></g></g></g></g><g><g><g><g><path d="M25.788,35.175H24c-0.247,0-0.447-0.2-0.447-0.447v-2.682c0-0.247,0.2-0.447,0.447-0.447h1.788       c0.247,0,0.447,0.2,0.447,0.447v2.682C26.235,34.975,26.035,35.175,25.788,35.175z M24.447,34.281h0.894v-1.788h-0.894V34.281z       "/></g></g></g></g><g><g><g><g><path d="M25.788,24.447H24c-0.247,0-0.447-0.2-0.447-0.447v-2.682c0-0.247,0.2-0.447,0.447-0.447h1.788       c0.247,0,0.447,0.2,0.447,0.447V24C26.235,24.247,26.035,24.447,25.788,24.447z M24.447,23.553h0.894v-1.788h-0.894V23.553z"/></g></g></g></g><g><g><g><g><path d="M8.148,29.811c-0.247,0-0.447-0.2-0.447-0.447c0-0.739-0.602-1.341-1.341-1.341c-0.478,0-0.923,0.257-1.162,0.67       c-0.123,0.214-0.399,0.288-0.61,0.163c-0.214-0.124-0.287-0.397-0.163-0.611c0.398-0.689,1.14-1.117,1.935-1.117       c1.233,0,2.235,1.003,2.235,2.235C8.595,29.611,8.395,29.811,8.148,29.811z"/></g></g></g></g><g><g><g><g><path d="M8.148,29.811c-0.247,0-0.447-0.2-0.447-0.447c0-1.232,1.002-2.235,2.235-2.235c0.795,0,1.537,0.428,1.935,1.117       c0.124,0.214,0.051,0.487-0.163,0.611c-0.212,0.124-0.487,0.051-0.61-0.163c-0.239-0.414-0.684-0.67-1.162-0.67       c-0.739,0-1.341,0.602-1.341,1.341C8.595,29.611,8.395,29.811,8.148,29.811z"/></g></g></g></g><g><g><g><g><path d="M9.042,29.811H7.254c-0.247,0-0.447-0.2-0.447-0.447s0.2-0.447,0.447-0.447h1.788c0.247,0,0.447,0.2,0.447,0.447       S9.289,29.811,9.042,29.811z"/></g></g></g></g></g><text x="0" y="63" fill="#000000" font-size="5px" font-weight="bold" font-family="'Helvetica Neue', Helvetica, Arial-Unicode, Arial, Sans-serif">Created by Royyan Wijaya</text><text x="0" y="68" fill="#000000" font-size="5px" font-weight="bold" font-family="'Helvetica Neue', Helvetica, Arial-Unicode, Arial, Sans-serif">from the Noun Project</text></svg>