<svg width="39" height="46" viewBox="0 0 39 46" fill="none" xmlns="http://www.w3.org/2000/svg">
<path d="M38.5 23.0001C38.5014 23.5943 38.3491 24.1787 38.0578 24.6966C37.7664 25.2145 37.3461 25.6481 36.8375 25.9554L5.32 45.236C4.78863 45.5614 4.18002 45.7391 3.55705 45.7506C2.93407 45.7621 2.31931 45.6072 1.77625 45.3017C1.23837 45.0009 0.790292 44.5624 0.478108 44.031C0.165925 43.4997 0.000898752 42.8948 0 42.2786V3.72168C0.000898752 3.10543 0.165925 2.50054 0.478108 1.96921C0.790292 1.43788 1.23837 0.999296 1.77625 0.698553C2.31931 0.393065 2.93407 0.238087 3.55705 0.249624C4.18002 0.26116 4.78863 0.438794 5.32 0.764178L36.8375 20.0448C37.3461 20.3521 37.7664 20.7857 38.0578 21.3036C38.3491 21.8215 38.5014 22.4059 38.5 23.0001Z" fill="white"/>
</svg>
