<svg width="28" height="28" viewBox="0 0 28 28" fill="none" xmlns="http://www.w3.org/2000/svg">
<g id="PhoneCall">
<path id="Vector" d="M16.6545 4.14862C16.6842 4.03757 16.7355 3.93346 16.8055 3.84225C16.8754 3.75103 16.9627 3.67449 17.0622 3.617C17.1618 3.55951 17.2716 3.5222 17.3856 3.50719C17.4996 3.49219 17.6154 3.49979 17.7264 3.52955C19.3485 3.95278 20.8285 4.80076 22.0139 5.98616C23.1993 7.17155 24.0473 8.65152 24.4705 10.2736C24.5002 10.3846 24.5078 10.5005 24.4928 10.6144C24.4778 10.7284 24.4405 10.8383 24.383 10.9378C24.3255 11.0374 24.249 11.1246 24.1578 11.1945C24.0666 11.2645 23.9625 11.3158 23.8514 11.3455C23.7775 11.3649 23.7014 11.3748 23.625 11.375C23.4323 11.3751 23.245 11.3115 23.0922 11.1943C22.9393 11.077 22.8294 10.9125 22.7795 10.7264C22.4345 9.40205 21.7425 8.19365 20.7749 7.22582C19.8073 6.25799 18.599 5.56576 17.2747 5.22049C17.1636 5.19091 17.0593 5.1397 16.968 5.0698C16.8767 4.9999 16.8 4.91268 16.7424 4.81313C16.6848 4.71357 16.6474 4.60364 16.6323 4.48962C16.6172 4.37559 16.6248 4.25972 16.6545 4.14862ZM16.3997 8.72049C17.908 9.12299 18.877 10.0931 19.2795 11.6014C19.3294 11.7875 19.4393 11.952 19.5922 12.0693C19.745 12.1865 19.9323 12.2501 20.125 12.25C20.2014 12.2498 20.2775 12.2399 20.3514 12.2205C20.4625 12.1908 20.5666 12.1395 20.6578 12.0695C20.749 11.9996 20.8255 11.9124 20.883 11.8128C20.9405 11.7133 20.9778 11.6034 20.9928 11.4894C21.0078 11.3755 21.0002 11.2596 20.9705 11.1486C20.4105 9.05299 18.947 7.58955 16.8514 7.02955C16.7404 6.99989 16.6246 6.99239 16.5107 7.00748C16.3967 7.02256 16.2869 7.05994 16.1874 7.11748C16.0879 7.17502 16.0008 7.25158 15.9309 7.34281C15.861 7.43404 15.8097 7.53813 15.7801 7.64916C15.7504 7.76019 15.7429 7.87598 15.758 7.9899C15.7731 8.10383 15.8105 8.21367 15.868 8.31315C15.9255 8.41263 16.0021 8.49981 16.0933 8.5697C16.1846 8.63959 16.2887 8.69083 16.3997 8.72049ZM24.3217 17.3316L19.1691 15.0227L19.1549 15.0161C18.8874 14.9017 18.5956 14.8558 18.3058 14.8825C18.0161 14.9093 17.7377 15.0078 17.4956 15.1692C17.4671 15.1881 17.4397 15.2085 17.4136 15.2305L14.7514 17.5C13.0649 16.6808 11.3236 14.9527 10.5044 13.288L12.7772 10.5853C12.7991 10.558 12.8199 10.5306 12.8395 10.5011C12.9975 10.2597 13.0934 9.98303 13.1185 9.69565C13.1437 9.40827 13.0975 9.11912 12.9839 8.85393V8.8408L10.6684 3.6794C10.5183 3.33297 10.2602 3.04438 9.93256 2.85672C9.60494 2.66906 9.22541 2.59239 8.85063 2.63815C7.36857 2.83317 6.00817 3.56102 5.02353 4.68575C4.03889 5.81048 3.49733 7.25518 3.50001 8.75002C3.50001 17.4344 10.5656 24.5 19.25 24.5C20.7448 24.5027 22.1895 23.9611 23.3143 22.9765C24.439 21.9919 25.1669 20.6315 25.3619 19.1494C25.4077 18.7747 25.3312 18.3953 25.1438 18.0677C24.9563 17.7401 24.668 17.4819 24.3217 17.3316Z" fill="white"/>
</g>
</svg>
