<svg width="28" height="28" viewBox="0 0 28 28" fill="none" xmlns="http://www.w3.org/2000/svg">
<g id="ChalkboardTeacher">
<path id="Vector" d="M23.625 4.375H4.375C3.91087 4.375 3.46575 4.55937 3.13756 4.88756C2.80937 5.21575 2.625 5.66087 2.625 6.125V21.875C2.625 22.3391 2.80937 22.7842 3.13756 23.1124C3.46575 23.4406 3.91087 23.625 4.375 23.625H5.83953C6.00513 23.6251 6.16735 23.5781 6.30733 23.4896C6.44731 23.4012 6.55931 23.2748 6.63031 23.1252C7.0558 22.2268 7.72757 21.4678 8.5675 20.9362C9.40743 20.4047 10.381 20.1225 11.375 20.1225C12.369 20.1225 13.3426 20.4047 14.1825 20.9362C15.0224 21.4678 15.6942 22.2268 16.1197 23.1252C16.1907 23.2748 16.3027 23.4012 16.4427 23.4896C16.5827 23.5781 16.7449 23.6251 16.9105 23.625H23.625C24.0891 23.625 24.5342 23.4406 24.8624 23.1124C25.1906 22.7842 25.375 22.3391 25.375 21.875V6.125C25.375 5.66087 25.1906 5.21575 24.8624 4.88756C24.5342 4.55937 24.0891 4.375 23.625 4.375ZM11.375 18.375C10.6828 18.375 10.0061 18.1697 9.4305 17.7851C8.85493 17.4006 8.40633 16.8539 8.14142 16.2144C7.87651 15.5749 7.8072 14.8711 7.94225 14.1922C8.0773 13.5133 8.41064 12.8896 8.90013 12.4001C9.38961 11.9106 10.0133 11.5773 10.6922 11.4423C11.3711 11.3072 12.0749 11.3765 12.7144 11.6414C13.3539 11.9063 13.9006 12.3549 14.2851 12.9305C14.6697 13.5061 14.875 14.1828 14.875 14.875C14.875 15.8033 14.5063 16.6935 13.8499 17.3499C13.1935 18.0063 12.3033 18.375 11.375 18.375ZM23.625 21.875H17.4377C17.0562 21.2173 16.57 20.6262 15.9983 20.125H21C21.2321 20.125 21.4546 20.0328 21.6187 19.8687C21.7828 19.7046 21.875 19.4821 21.875 19.25V8.75C21.875 8.51794 21.7828 8.29538 21.6187 8.13128C21.4546 7.96719 21.2321 7.875 21 7.875H7C6.76794 7.875 6.54538 7.96719 6.38128 8.13128C6.21719 8.29538 6.125 8.51794 6.125 8.75V19.25C6.1249 19.4441 6.18932 19.6326 6.30812 19.7861C6.42691 19.9395 6.59335 20.0491 6.78125 20.0977C6.19633 20.6044 5.6999 21.2051 5.31234 21.875H4.375V6.125H23.625V21.875Z" fill="white"/>
</g>
</svg>
