<svg width="30" height="30" viewBox="0 0 30 30" fill="none" xmlns="http://www.w3.org/2000/svg">
<g clip-path="url(#clip0_8_686)">
<path d="M24.466 0H16.2518H7.58043C5.49428 0.00383926 3.80135 1.68883 3.7876 3.77498V26.2248C3.80135 28.311 5.49428 29.996 7.58043 29.9998H24.4768C24.9407 30.0067 25.3881 29.828 25.7196 29.5034C26.0359 29.1784 26.2128 28.7427 26.2125 28.2891V1.74642C26.2105 0.782674 25.4298 0.00196427 24.466 0ZM16.9732 1.42856H21.1696V8.12852L19.6804 5.75354C19.62 5.653 19.5359 5.56881 19.4354 5.50854C19.0971 5.30559 18.6583 5.41524 18.4554 5.75354L16.9732 8.11781V1.42856ZM5.23402 3.77498C5.23991 2.4815 6.28696 1.43446 7.58043 1.42856H15.5447V8.71423C15.5178 9.29414 15.8819 9.82048 16.434 9.99994C17.0625 10.1892 17.6268 9.78209 17.9625 9.24637L19.0732 7.46067L20.1839 9.24637C20.5161 9.77494 21.0804 10.1821 21.7268 9.99994C22.2762 9.82119 22.6396 9.2987 22.6161 8.72138V1.44642H24.4768C24.6417 1.44838 24.7748 1.58151 24.7768 1.74642V22.4601C24.6777 22.4434 24.5773 22.435 24.4768 22.4356H7.58043C6.72838 22.4353 5.90133 22.7236 5.23402 23.2534V3.77498V3.77498ZM24.7768 25.5177L8.309 25.5356C7.91454 25.5356 7.59472 25.8554 7.59472 26.2498C7.59472 26.6443 7.91454 26.9641 8.309 26.9641L24.7768 26.9463V28.2748C24.7775 28.3547 24.7468 28.4318 24.691 28.4891C24.6337 28.5447 24.5567 28.5755 24.4768 28.5748H7.58043C6.28357 28.5748 5.23223 27.5235 5.23223 26.2266C5.23223 24.9298 6.28357 23.8784 7.58043 23.8784H24.4768C24.6417 23.8804 24.7748 24.0135 24.7768 24.1784V25.5177V25.5177Z" fill="black" fill-opacity="0.36"/>
</g>
<defs>
<clipPath id="clip0_8_686">
<rect width="30" height="30" fill="white"/>
</clipPath>
</defs>
</svg>
