<svg xmlns="http://www.w3.org/2000/svg" xmlns:xlink="http://www.w3.org/1999/xlink" version="1.1" x="0px" y="0px" viewBox="0 0 128 160" style="enable-background:new 0 0 128 128;" xml:space="preserve"><title>miscellaneous 420 final</title><path d="M73,0H27c-3.3,0-6,2.7-6,6v112c0,5.5,4.5,10,10,10h66c1.1,0,2-0.9,2-2s-0.9-2-2-2H31c-3.3,0-6-2.7-6-6s2.7-6,6-6h66  c1.1,0,2-0.9,2-2V14h2c1.1,0,2,0.9,2,2v98c0,1.1-0.9,2-2,2H45c-1.1,0-2,0.9-2,2s0.9,2,2,2h56c3.3,0,6-2.7,6-6V16c0-3.3-2.7-6-6-6h-2  V6c0-3.3-2.7-6-6-6h-6c-1.1,0-2,0.9-2,2v16.9l-4.2-1.9c-0.5-0.2-1.1-0.2-1.6,0L75,18.9V2C75,0.9,74.1,0,73,0z M29,108.2  c-1.5,0.3-2.8,0.9-4,1.8V6c0-1.1,0.9-2,2-2h2V108.2z M80,21.1l6.2,2.7c1,0.4,2.2,0,2.6-1c0.1-0.3,0.2-0.5,0.2-0.8V4h4  c1.1,0,2,0.9,2,2v102H33V4h38v18c0,1.1,0.9,2,2,2c0.3,0,0.6-0.1,0.8-0.2L80,21.1z"/><path d="M39,32c0,1.1,0.9,2,2,2h46c1.1,0,2-0.9,2-2c0-1.1-0.9-2-2-2H41C39.9,30,39,30.9,39,32z"/><path d="M80,38H48c-1.1,0-2,0.9-2,2s0.9,2,2,2h32c1.1,0,2-0.9,2-2S81.1,38,80,38z"/><path d="M39,78c0,1.1,0.9,2,2,2h46c1.1,0,2-0.9,2-2s-0.9-2-2-2H41C39.9,76,39,76.9,39,78z"/><path d="M46,70c0,1.1,0.9,2,2,2h32c1.1,0,2-0.9,2-2s-0.9-2-2-2H48C46.9,68,46,68.9,46,70z"/><path d="M66.5,59c1.1,0,2-0.9,2-2s-0.9-2-2-2h-5c-1.1,0-2,0.9-2,2s0.9,2,2,2H66.5z"/><path d="M71.5,88.6l-2.8-0.4l-1.2-2.2c-1.1-1.9-3.5-2.6-5.4-1.6c-0.7,0.4-1.2,0.9-1.6,1.6l-1.2,2.2l-2.8,0.4  c-2.2,0.3-3.7,2.3-3.4,4.5c0.1,1,0.6,1.8,1.3,2.5l1.8,1.6l-0.4,2.1c-0.4,2.2,1,4.3,3.2,4.7c0.8,0.2,1.7,0,2.5-0.3l2.6-1.2l2.6,1.2  c2,0.9,4.4,0.1,5.3-1.9c0.4-0.8,0.5-1.6,0.3-2.5l-0.4-2.1l1.8-1.6c1.7-1.5,1.8-4,0.4-5.6C73.4,89.2,72.5,88.7,71.5,88.6L71.5,88.6z   M67.5,95.7l0.8,4.3L64,98l-4.3,2l0.8-4.3L57,92.6l4.8-0.6l2.2-4l2.2,4l4.8,0.6L67.5,95.7z"/><path d="M81,88c-1.1,0-2,0.9-2,2s0.9,2,2,2h4c1.1,0,2-0.9,2-2s-0.9-2-2-2H81z"/><path d="M81,96c-1.1,0-2,0.9-2,2s0.9,2,2,2h8c1.1,0,2-0.9,2-2s-0.9-2-2-2H81z"/><path d="M47,88h-4c-1.1,0-2,0.9-2,2s0.9,2,2,2h4c1.1,0,2-0.9,2-2S48.1,88,47,88z"/><path d="M47,96h-8c-1.1,0-2,0.9-2,2s0.9,2,2,2h8c1.1,0,2-0.9,2-2S48.1,96,47,96z"/><path d="M39,12h24c1.1,0,2-0.9,2-2s-0.9-2-2-2H39c-1.1,0-2,0.9-2,2S37.9,12,39,12z"/><path d="M39,20h14c1.1,0,2-0.9,2-2s-0.9-2-2-2H39c-1.1,0-2,0.9-2,2S37.9,20,39,20z"/><text x="0" y="143" fill="#000000" font-size="5px" font-weight="bold" font-family="'Helvetica Neue', Helvetica, Arial-Unicode, Arial, Sans-serif">Created by WEBTECHOPS LLP</text><text x="0" y="148" fill="#000000" font-size="5px" font-weight="bold" font-family="'Helvetica Neue', Helvetica, Arial-Unicode, Arial, Sans-serif">from the Noun Project</text></svg>