<svg width="90" height="98" viewBox="0 0 90 98" fill="none" xmlns="http://www.w3.org/2000/svg">
<g id="Group 44">
<g id="freepik--dictionaries-2--inject-124">
<g id="freepik--Book--inject-124">
<path id="Vector" d="M86.6552 16.762V18.0184C86.6552 18.0184 86.1466 17.578 86.1179 17.2604C86.0892 16.9429 86.6552 16.762 86.6552 16.762Z" fill="black"/>
<path id="Vector_2" d="M85.6415 16.448C85.5791 16.6237 85.5564 16.81 85.5748 16.9947C85.5933 17.1793 85.6525 17.3582 85.7486 17.5195C85.8446 17.6808 85.9754 17.8209 86.1323 17.9306C86.2892 18.0403 86.4687 18.1171 86.6589 18.1559C88.0918 18.5897 89.0052 18.1559 89.2202 18.5419C89.4351 18.9279 82.3853 22.8015 82.3853 22.8015L83.7251 17.2405L85.6415 16.448Z" fill="#142142"/>
<path id="Vector_3" opacity="0.3" d="M85.6415 16.448C85.5791 16.6237 85.5564 16.81 85.5748 16.9947C85.5933 17.1793 85.6525 17.3582 85.7486 17.5195C85.8446 17.6808 85.9754 17.8209 86.1323 17.9306C86.2892 18.0403 86.4687 18.1171 86.6589 18.1559C88.0918 18.5897 89.0052 18.1559 89.2202 18.5419C89.4351 18.9279 82.3853 22.8015 82.3853 22.8015L83.7251 17.2405L85.6415 16.448Z" fill="black"/>
<path id="Vector_4" d="M82.9793 68.4851V68.5637L82.2628 68.1777L52.0505 51.5288L54.7014 1.54101C54.7014 0.7417 55.1599 0.34546 55.7295 0.659719L56.7576 1.22675L85.0319 16.7894L85.0032 17.0251L82.9793 68.4851Z" fill="#142142"/>
<path id="Vector_5" opacity="0.2" d="M82.9793 68.4851V68.5637L82.2628 68.1777L52.0505 51.5288L54.7014 1.54101C54.7014 0.7417 55.1599 0.34546 55.7295 0.659719L56.7576 1.22675L85.0319 16.7894L85.0032 17.0251L82.9793 68.4851Z" fill="black"/>
<path id="Vector_6" d="M78.8741 24.3282L77.3875 22.7364L84.9781 18.5588C86.1244 19.3821 87.0057 19.8227 88.0302 19.4094L78.8741 24.3282Z" fill="#455A64"/>
<path id="Vector_7" d="M84.5949 17.7015L56.5928 2.28568C56.3202 2.1542 56.019 2.08569 55.7134 2.08569C55.4079 2.08569 55.1066 2.1542 54.834 2.28568L47.3508 6.40521L75.7469 21.9132C75.7469 21.9132 76.9756 21.6092 77.8102 22.2548C78.6449 22.9004 78.5983 22.0806 78.5983 22.0806L84.9782 18.5691C84.4588 17.8928 84.5949 17.7015 84.5949 17.7015Z" fill="#F5F5F5"/>
<path id="Vector_8" d="M78.3263 23.9969C78.0361 23.8397 77.9143 23.6553 78.0504 23.5801L78.2868 23.4503C78.5519 23.3035 78.3083 22.9277 77.7352 22.6134C77.162 22.2992 76.485 22.1557 76.2235 22.3026L75.9835 22.4324C75.8474 22.5076 75.3494 22.3538 74.8658 22.0908L75.0378 72.1639L75.7542 72.5499C75.892 72.5825 76.0374 72.5693 76.1662 72.5124L76.4062 72.3826C76.6677 72.2391 77.3447 72.3826 77.9143 72.6866C78.4839 72.9906 78.731 73.3698 78.466 73.5235L78.2295 73.6533C78.0934 73.7284 78.2295 73.9129 78.5054 74.0734L78.3263 23.9969Z" fill="#142142"/>
<path id="Vector_9" opacity="0.4" d="M78.3263 23.9969C78.0361 23.8397 77.9143 23.6553 78.0504 23.5801L78.2868 23.4503C78.5519 23.3035 78.3083 22.9277 77.7352 22.6134C77.162 22.2992 76.485 22.1557 76.2235 22.3026L75.9835 22.4324C75.8474 22.5076 75.3494 22.3538 74.8658 22.0908L75.0378 72.1639L75.7542 72.5499C75.892 72.5825 76.0374 72.5693 76.1662 72.5124L76.4062 72.3826C76.6677 72.2391 77.3447 72.3826 77.9143 72.6866C78.4839 72.9906 78.731 73.3698 78.466 73.5235L78.2295 73.6533C78.0934 73.7284 78.2295 73.9129 78.5054 74.0734L78.3263 23.9969Z" fill="black"/>
<path id="Vector_10" d="M75.7465 72.4679V72.5465L75.03 72.1605L44.7891 55.5116V7.0063C44.7891 6.20357 45.2476 5.80733 45.8172 6.12159L46.8452 6.69204L75.7465 21.9131V72.4679Z" fill="#142142"/>
<path id="Vector_11" opacity="0.2" d="M75.7465 72.4679V72.5465L75.03 72.1605L44.7891 55.5116V7.0063C44.7891 6.20357 45.2476 5.80733 45.8172 6.12159L46.8452 6.69204L75.7465 21.9131V72.4679Z" fill="black"/>
<path id="Vector_12" d="M77.9951 73.7865V23.6587L79.8721 24.3794V74.3467C79.5232 74.4128 79.1616 74.3783 78.8333 74.2476L77.9951 73.7865Z" fill="#142142"/>
<path id="Vector_13" opacity="0.2" d="M77.9951 73.7865V23.6587L79.8721 24.3794V74.3467C79.5232 74.4128 79.1616 74.3783 78.8333 74.2476L77.9951 73.7865Z" fill="black"/>
<path id="Vector_14" d="M89.9748 68.5842C89.9784 68.6171 89.9784 68.6503 89.9748 68.6832C89.9782 68.7036 89.9782 68.7244 89.9748 68.7447C89.962 68.7919 89.9414 68.8369 89.9139 68.8779C89.905 68.9031 89.8929 68.9272 89.8781 68.9497C89.8325 69.0266 89.7785 69.0988 89.7169 69.1649C89.6526 69.2418 89.5832 69.3149 89.5091 69.3835L89.2441 69.6021C89.191 69.6457 89.1347 69.6857 89.0757 69.7217L88.936 69.8139C88.8321 69.8822 88.7211 69.9505 88.6029 70.0154L82.0868 73.6021C81.41 73.9788 80.6652 74.2314 79.8909 74.3467V24.3795L89.9999 18.6033V68.5705L89.9748 68.5842Z" fill="#142142"/>
<path id="Vector_15" d="M79.8694 31.3171V37.3393C83.9138 36.0344 87.3921 34.265 89.982 31.7749V25.7527C87.3777 28.2326 83.9317 30.0089 79.8694 31.3171Z" fill="#142142"/>
<path id="Vector_16" opacity="0.4" d="M79.8694 31.3171V37.3393C83.9138 36.0344 87.3921 34.265 89.982 31.7749V25.7527C87.3777 28.2326 83.9317 30.0089 79.8694 31.3171Z" fill="white"/>
<path id="Vector_17" d="M79.8694 39.5732V41.8175C83.9138 40.5092 87.3921 38.7432 89.982 36.253V34.0054C87.3777 36.4887 83.9317 38.265 79.8694 39.5732Z" fill="#142142"/>
<path id="Vector_18" opacity="0.4" d="M79.8694 39.5732V41.8175C83.9138 40.5092 87.3921 38.7432 89.982 36.253V34.0054C87.3777 36.4887 83.9317 38.265 79.8694 39.5732Z" fill="white"/>
<path id="Vector_19" d="M82.0681 23.6212L81.5594 22.7809C80.9057 23.1679 80.1605 23.3923 79.3922 23.4333C79.4299 23.1486 79.3669 22.8601 79.2131 22.6135C78.969 22.2551 78.6338 21.9613 78.2387 21.7595C77.7845 21.5065 77.2813 21.3438 76.7593 21.2813H76.6482C76.3371 21.2523 76.0237 21.3092 75.7455 21.4453L48.9256 6.68532L48.0121 6.20027L46.8515 5.55808C46.7601 5.49775 46.6534 5.46182 46.5426 5.45401C46.4317 5.4462 46.3207 5.4668 46.221 5.51368L45.1893 6.08071C45.2905 6.0313 45.4037 6.00871 45.5171 6.01532C45.6306 6.02193 45.74 6.05749 45.8341 6.11829H45.852L48.9256 7.82622L74.8643 22.1045C75.3479 22.3675 75.8494 22.5281 75.9855 22.4461L76.222 22.3163C76.3924 22.249 76.5816 22.2382 76.7593 22.2856C77.1019 22.3423 77.4309 22.4581 77.7301 22.6272C78.3032 22.9448 78.5468 23.3103 78.2853 23.464L78.0489 23.5938C77.9092 23.669 78.0489 23.8534 78.3247 24.014L78.8406 24.2941C79.4065 24.5913 80.8537 24.3043 82.0681 23.6212Z" fill="#142142"/>
<path id="Vector_20" opacity="0.3" d="M82.0681 23.6212L81.5594 22.7809C80.9057 23.1679 80.1605 23.3923 79.3922 23.4333C79.4299 23.1486 79.3669 22.8601 79.2131 22.6135C78.969 22.2551 78.6338 21.9613 78.2387 21.7595C77.7845 21.5065 77.2813 21.3438 76.7593 21.2813H76.6482C76.3371 21.2523 76.0237 21.3092 75.7455 21.4453L48.9256 6.68532L48.0121 6.20027L46.8515 5.55808C46.7601 5.49775 46.6534 5.46182 46.5426 5.45401C46.4317 5.4462 46.3207 5.4668 46.221 5.51368L45.1893 6.08071C45.2905 6.0313 45.4037 6.00871 45.5171 6.01532C45.6306 6.02193 45.74 6.05749 45.8341 6.11829H45.852L48.9256 7.82622L74.8643 22.1045C75.3479 22.3675 75.8494 22.5281 75.9855 22.4461L76.222 22.3163C76.3924 22.249 76.5816 22.2382 76.7593 22.2856C77.1019 22.3423 77.4309 22.4581 77.7301 22.6272C78.3032 22.9448 78.5468 23.3103 78.2853 23.464L78.0489 23.5938C77.9092 23.669 78.0489 23.8534 78.3247 24.014L78.8406 24.2941C79.4065 24.5913 80.8537 24.3043 82.0681 23.6212Z" fill="black"/>
<path id="Vector_21" d="M81.5595 22.7945L88.0755 19.2079L88.3406 19.0507L88.5484 18.9073C88.5555 18.9089 88.5628 18.9089 88.5699 18.9073C87.8248 19.2147 86.8146 18.9073 86.1483 18.5657C85.7593 18.3711 85.4307 18.0825 85.1955 17.7288C85.0239 17.4548 84.9652 17.1297 85.0307 16.8168L84.9411 16.7655L84.7584 16.6699L58.8197 2.36083L57.3331 1.54102C57.1934 1.46587 57.0501 1.38389 56.9032 1.30874L55.6494 0.62557C55.5628 0.581898 55.4663 0.55907 55.3682 0.55907C55.2702 0.55907 55.1737 0.581898 55.087 0.62557L55.3664 0.471856L56.1151 0.0619521C56.1963 0.0212608 56.2867 0 56.3784 0C56.4701 0 56.5605 0.0212608 56.6417 0.0619521C56.7886 0.143933 56.9426 0.232746 57.1038 0.314727L57.394 0.475273L57.8955 0.748541L58.2035 0.919335L58.4221 1.03889L58.8054 1.24726L79.403 12.5948L85.9835 16.2156C86.4528 16.4683 86.7286 16.7382 86.6176 16.827C86.6052 16.8371 86.592 16.8462 86.5782 16.8543L86.3453 16.9807C86.0623 17.1379 86.2916 17.5204 86.8612 17.8313C87.4307 18.1421 87.8821 18.1524 88.1651 18.0089L88.4481 17.8552C88.5065 17.8155 88.574 17.7895 88.645 17.7794C88.7159 17.7693 88.7884 17.7754 88.8565 17.7971L89.0105 17.8791L89.3329 18.0601L89.7377 18.2788C89.8216 18.3188 89.8887 18.385 89.9278 18.4664C89.9668 18.5478 89.9756 18.6395 89.9526 18.7262C89.9592 18.7462 89.9592 18.7677 89.9526 18.7877C89.941 18.8347 89.9217 18.8797 89.8953 18.9209C89.8889 18.9448 89.8792 18.9677 89.8666 18.9893C89.821 19.0662 89.767 19.1384 89.7054 19.2045C89.6411 19.2814 89.5717 19.3544 89.4977 19.4231C89.4117 19.4948 89.3257 19.5665 89.229 19.6417C89.1772 19.6853 89.1221 19.7252 89.0642 19.7612L88.9245 19.8535C88.8206 19.9218 88.7096 19.9901 88.5878 20.055L82.0682 23.6212L81.5595 22.7945Z" fill="#142142"/>
<path id="Vector_22" opacity="0.3" d="M81.5595 22.7945L88.0755 19.2079L88.3406 19.0507L88.5484 18.9073C88.5555 18.9089 88.5628 18.9089 88.5699 18.9073C87.8248 19.2147 86.8146 18.9073 86.1483 18.5657C85.7593 18.3711 85.4307 18.0825 85.1955 17.7288C85.0239 17.4548 84.9652 17.1297 85.0307 16.8168L84.9411 16.7655L84.7584 16.6699L58.8197 2.36083L57.3331 1.54102C57.1934 1.46587 57.0501 1.38389 56.9032 1.30874L55.6494 0.62557C55.5628 0.581898 55.4663 0.55907 55.3682 0.55907C55.2702 0.55907 55.1737 0.581898 55.087 0.62557L55.3664 0.471856L56.1151 0.0619521C56.1963 0.0212608 56.2867 0 56.3784 0C56.4701 0 56.5605 0.0212608 56.6417 0.0619521C56.7886 0.143933 56.9426 0.232746 57.1038 0.314727L57.394 0.475273L57.8955 0.748541L58.2035 0.919335L58.4221 1.03889L58.8054 1.24726L79.403 12.5948L85.9835 16.2156C86.4528 16.4683 86.7286 16.7382 86.6176 16.827C86.6052 16.8371 86.592 16.8462 86.5782 16.8543L86.3453 16.9807C86.0623 17.1379 86.2916 17.5204 86.8612 17.8313C87.4307 18.1421 87.8821 18.1524 88.1651 18.0089L88.4481 17.8552C88.5065 17.8155 88.574 17.7895 88.645 17.7794C88.7159 17.7693 88.7884 17.7754 88.8565 17.7971L89.0105 17.8791L89.3329 18.0601L89.7377 18.2788C89.8216 18.3188 89.8887 18.385 89.9278 18.4664C89.9668 18.5478 89.9756 18.6395 89.9526 18.7262C89.9592 18.7462 89.9592 18.7677 89.9526 18.7877C89.941 18.8347 89.9217 18.8797 89.8953 18.9209C89.8889 18.9448 89.8792 18.9677 89.8666 18.9893C89.821 19.0662 89.767 19.1384 89.7054 19.2045C89.6411 19.2814 89.5717 19.3544 89.4977 19.4231C89.4117 19.4948 89.3257 19.5665 89.229 19.6417C89.1772 19.6853 89.1221 19.7252 89.0642 19.7612L88.9245 19.8535C88.8206 19.9218 88.7096 19.9901 88.5878 20.055L82.0682 23.6212L81.5595 22.7945Z" fill="black"/>
</g>
<g id="freepik--book--inject-124">
<path id="Vector_23" d="M71.6618 25.377V26.6334C71.6618 26.6334 71.1531 26.1929 71.1245 25.8754C71.0958 25.5579 71.6618 25.377 71.6618 25.377Z" fill="black"/>
<path id="Vector_24" d="M70.646 25.0695C70.5888 25.244 70.5703 25.4279 70.5915 25.6095C70.6127 25.7912 70.6732 25.9667 70.7691 26.125C70.865 26.2832 70.9944 26.4208 71.1489 26.529C71.3034 26.6372 71.4798 26.7136 71.6669 26.7535C73.0998 27.1839 74.0096 26.7535 74.2282 27.1395C74.4467 27.5255 67.3933 31.3991 67.3933 31.3991L68.7331 25.838L70.646 25.0695Z" fill="#142142"/>
<path id="Vector_25" opacity="0.3" d="M70.646 25.0695C70.5888 25.244 70.5703 25.4279 70.5915 25.6095C70.6127 25.7912 70.6732 25.9667 70.7691 26.125C70.865 26.2832 70.9944 26.4208 71.1489 26.529C71.3034 26.6372 71.4798 26.7136 71.6669 26.7535C73.0998 27.1839 74.0096 26.7535 74.2282 27.1395C74.4467 27.5255 67.3933 31.3991 67.3933 31.3991L68.7331 25.838L70.646 25.0695Z" fill="black"/>
<path id="Vector_26" d="M67.987 77.0997V77.1783L67.2706 76.7923L37.0403 60.1433L39.7055 10.1556C39.7055 9.35286 40.1676 8.95662 40.7336 9.27088L41.7653 9.84133L70.036 25.4006L70.0109 25.6363L67.987 77.0997Z" fill="#142142"/>
<path id="Vector_27" opacity="0.2" d="M67.987 77.0997V77.1783L67.2706 76.7923L37.0403 60.1433L39.7055 10.1556C39.7055 9.35286 40.1676 8.95662 40.7336 9.27088L41.7653 9.84133L70.036 25.4006L70.0109 25.6363L67.987 77.0997Z" fill="black"/>
<path id="Vector_28" d="M63.8709 32.943L62.3878 31.3512L69.9785 27.1702C71.1248 27.9968 72.0025 28.434 73.0306 28.0241L63.8709 32.943Z" fill="#455A64"/>
<path id="Vector_29" d="M69.6036 26.3162L41.6015 10.9004C41.3289 10.7689 41.0276 10.7004 40.7221 10.7004C40.4166 10.7004 40.1153 10.7689 39.8427 10.9004L32.3487 15.02L60.7448 30.5177C60.7448 30.5177 61.9699 30.2137 62.8046 30.8593C63.6392 31.5049 63.5963 30.6885 63.5963 30.6885L69.9762 27.1736C69.4675 26.5041 69.6036 26.3162 69.6036 26.3162Z" fill="#F5F5F5"/>
<path id="Vector_30" d="M63.3338 32.6116C63.0436 32.4511 62.9182 32.27 63.0579 32.1949L63.2944 32.0617C63.5559 31.9182 63.3123 31.5424 62.7391 31.2248C62.166 30.9071 61.4925 30.7705 61.2274 30.9173L60.991 31.0472C60.8549 31.1223 60.3569 30.9686 59.8734 30.7056L60.0453 80.7787L60.7617 81.1647C60.8998 81.1937 61.0439 81.1806 61.1737 81.1271L61.4101 80.9973C61.6752 80.8504 62.3487 80.9973 62.9218 81.3013C63.495 81.6053 63.7386 81.9845 63.4735 82.1382L63.237 82.268C63.1009 82.3432 63.237 82.5276 63.5129 82.6848L63.3338 32.6116Z" fill="#142142"/>
<path id="Vector_31" opacity="0.25" d="M63.3338 32.6116C63.0436 32.4511 62.9182 32.27 63.0579 32.1949L63.2944 32.0617C63.5559 31.9182 63.3123 31.5424 62.7391 31.2248C62.166 30.9071 61.4925 30.7705 61.2274 30.9173L60.991 31.0472C60.8549 31.1223 60.3569 30.9686 59.8734 30.7056L60.0453 80.7787L60.7617 81.1647C60.8998 81.1937 61.0439 81.1806 61.1737 81.1271L61.4101 80.9973C61.6752 80.8504 62.3487 80.9973 62.9218 81.3013C63.495 81.6053 63.7386 81.9845 63.4735 82.1382L63.237 82.268C63.1009 82.3432 63.237 82.5276 63.5129 82.6848L63.3338 32.6116Z" fill="white"/>
<path id="Vector_32" d="M60.7543 81.0828V81.1613L60.0379 80.7719L29.7969 64.1264V15.6212C29.7969 14.8184 30.259 14.4222 30.8286 14.7365L31.8567 15.3035L60.74 30.5348L60.7543 81.0828Z" fill="#142142"/>
<path id="Vector_33" opacity="0.4" d="M60.7543 81.0828V81.1613L60.0379 80.7719L29.7969 64.1264V15.6212C29.7969 14.8184 30.259 14.4222 30.8286 14.7365L31.8567 15.3035L60.74 30.5348L60.7543 81.0828Z" fill="white"/>
<path id="Vector_34" d="M63.0002 82.3978V32.2734L64.8773 32.9942V82.958C64.5299 83.0262 64.1691 82.9928 63.842 82.8624L63.0002 82.3978Z" fill="#142142"/>
<path id="Vector_35" opacity="0.4" d="M63.0002 82.3978V32.2734L64.8773 32.9942V82.958C64.5299 83.0262 64.1691 82.9928 63.842 82.8624L63.0002 82.3978Z" fill="white"/>
<path id="Vector_36" d="M74.9759 77.1989C74.9794 77.2307 74.9794 77.2628 74.9759 77.2946C74.983 77.3157 74.983 77.3384 74.9759 77.3595C74.9643 77.4065 74.9449 77.4514 74.9186 77.4927C74.9103 77.517 74.8982 77.5401 74.8828 77.561C74.8381 77.6396 74.784 77.7129 74.7216 77.7796C74.6571 77.8555 74.5877 77.9273 74.5138 77.9948C74.4278 78.07 74.3418 78.1417 74.2451 78.2134C74.1928 78.259 74.1365 78.3001 74.0768 78.3364L73.9406 78.4286C73.8367 78.497 73.7257 78.5653 73.6039 78.6302L67.0915 82.2168C66.4146 82.5935 65.6698 82.8461 64.8956 82.9615V32.9942L74.9759 27.218V77.1989Z" fill="#142142"/>
<g id="Group" opacity="0.7">
<path id="Vector_37" d="M74.9759 77.1989C74.9794 77.2307 74.9794 77.2628 74.9759 77.2946C74.983 77.3157 74.983 77.3384 74.9759 77.3595C74.9643 77.4065 74.9449 77.4514 74.9186 77.4927C74.9103 77.517 74.8982 77.5401 74.8828 77.561C74.8381 77.6396 74.784 77.7129 74.7216 77.7796C74.6571 77.8555 74.5877 77.9273 74.5138 77.9948C74.4278 78.07 74.3418 78.1417 74.2451 78.2134C74.1928 78.259 74.1365 78.3001 74.0768 78.3364L73.9406 78.4286C73.8367 78.497 73.7257 78.5653 73.6039 78.6302L67.0915 82.2168C66.4146 82.5935 65.6698 82.8461 64.8956 82.9615V32.9942L74.9759 27.218V77.1989Z" fill="white"/>
</g>
<path id="Vector_38" d="M64.8779 37.1343V43.1598C68.9186 41.8516 72.4005 40.0856 74.9868 37.592V31.5698C72.3862 34.0497 68.9186 35.826 64.8779 37.1343Z" fill="#FAFAFA"/>
<path id="Vector_39" d="M64.8779 70.6882V76.7104C68.9186 75.4055 72.4005 73.6361 74.9868 71.1459V65.1238C72.3862 67.6037 68.9186 69.3936 64.8779 70.6882Z" fill="#FAFAFA"/>
<path id="Vector_40" d="M67.0944 32.2496L66.5858 31.4093C65.9369 31.7928 65.1984 32.017 64.4365 32.0617C64.4726 31.7771 64.4096 31.4891 64.2573 31.2419C64.0132 30.8835 63.6781 30.5897 63.283 30.3879C62.8282 30.1334 62.3234 29.9706 61.8 29.9097C61.7642 29.9064 61.7282 29.9064 61.6925 29.9097C61.3806 29.881 61.0665 29.9367 60.7862 30.0703L33.9304 15.3001L33.0205 14.8013L31.8563 14.1592C31.7649 14.0988 31.6583 14.0629 31.5474 14.0551C31.4366 14.0473 31.3255 14.0679 31.2258 14.1148L30.1978 14.6818C30.2987 14.6317 30.412 14.6087 30.5256 14.6153C30.6392 14.6219 30.7488 14.6579 30.8425 14.7194L33.9161 16.4273L59.8548 30.7056C60.3384 30.9686 60.8399 31.1292 60.976 31.0472L61.2161 30.9174C61.3864 30.8502 61.5752 30.8382 61.7534 30.8832C62.0956 30.9416 62.4242 31.0573 62.7242 31.2248C63.2973 31.5425 63.5409 31.908 63.2758 32.0617L63.0394 32.1915C62.9033 32.2666 63.0394 32.4511 63.3152 32.6082L63.8311 32.8918C64.4114 33.206 65.8622 32.9157 67.0944 32.2496Z" fill="#142142"/>
<path id="Vector_41" opacity="0.6" d="M67.0944 32.2496L66.5858 31.4093C65.9369 31.7928 65.1984 32.017 64.4365 32.0617C64.4726 31.7771 64.4096 31.4891 64.2573 31.2419C64.0132 30.8835 63.6781 30.5897 63.283 30.3879C62.8282 30.1334 62.3234 29.9706 61.8 29.9097C61.7642 29.9064 61.7282 29.9064 61.6925 29.9097C61.3806 29.881 61.0665 29.9367 60.7862 30.0703L33.9304 15.3001L33.0205 14.8013L31.8563 14.1592C31.7649 14.0988 31.6583 14.0629 31.5474 14.0551C31.4366 14.0473 31.3255 14.0679 31.2258 14.1148L30.1978 14.6818C30.2987 14.6317 30.412 14.6087 30.5256 14.6153C30.6392 14.6219 30.7488 14.6579 30.8425 14.7194L33.9161 16.4273L59.8548 30.7056C60.3384 30.9686 60.8399 31.1292 60.976 31.0472L61.2161 30.9174C61.3864 30.8502 61.5752 30.8382 61.7534 30.8832C62.0956 30.9416 62.4242 31.0573 62.7242 31.2248C63.2973 31.5425 63.5409 31.908 63.2758 32.0617L63.0394 32.1915C62.9033 32.2666 63.0394 32.4511 63.3152 32.6082L63.8311 32.8918C64.4114 33.206 65.8622 32.9157 67.0944 32.2496Z" fill="white"/>
<path id="Vector_42" d="M66.5692 31.4093L73.0816 27.8226L73.3503 27.6655L73.5581 27.522C72.813 27.8329 71.8028 27.522 71.1401 27.1804C70.7508 26.9835 70.4213 26.694 70.1836 26.3401C70.0158 26.0661 69.9573 25.7434 70.0189 25.4315L69.9293 25.3803L69.7502 25.2846L43.8294 10.9824L42.3428 10.1626C42.2031 10.0875 42.0598 10.0055 41.9129 9.93034C41.4759 9.68781 41.0353 9.44529 40.6555 9.24717C40.5689 9.2035 40.4724 9.18067 40.3743 9.18067C40.2763 9.18067 40.1798 9.2035 40.0931 9.24717L40.3761 9.09345L41.1248 8.68014C41.2057 8.6403 41.2953 8.61951 41.3863 8.61951C41.4773 8.61951 41.567 8.6403 41.6478 8.68014C41.7983 8.76212 41.9523 8.85093 42.1135 8.93291L42.4037 9.09345L42.9016 9.36672C43.0162 9.42821 43.1201 9.48286 43.2097 9.53751L43.4318 9.65707L43.8151 9.86544L64.4127 21.2129L70.9896 24.8303C71.4625 25.0865 71.7347 25.3564 71.6237 25.4452L71.5843 25.4725L71.355 25.5989C71.0685 25.756 71.3013 26.1386 71.8709 26.4495C72.4404 26.7603 72.8918 26.7705 73.1748 26.6271L73.4542 26.4699C73.5141 26.4318 73.5821 26.4069 73.6533 26.3968C73.7246 26.3868 73.7972 26.3919 73.8661 26.4119L74.0166 26.4973L74.3426 26.6783L74.7438 26.8969C74.8276 26.9363 74.895 27.0017 74.9347 27.0824C74.9744 27.1631 74.9841 27.2543 74.9623 27.341C74.9676 27.3623 74.9676 27.3846 74.9623 27.4059C74.9495 27.4531 74.9289 27.498 74.9014 27.5391C74.8956 27.5621 74.8859 27.584 74.8727 27.604C74.8281 27.6826 74.774 27.756 74.7116 27.8226C74.6471 27.8944 74.5754 27.9695 74.5002 28.0378C74.425 28.1061 74.3318 28.1813 74.2351 28.2564C74.1828 28.302 74.1265 28.3431 74.0667 28.3794L73.9306 28.4716C73.8267 28.54 73.7121 28.6083 73.5939 28.6732L67.0958 32.2496L66.5692 31.4093Z" fill="#142142"/>
<path id="Vector_43" opacity="0.6" d="M66.5692 31.4093L73.0816 27.8226L73.3503 27.6655L73.5581 27.522C72.813 27.8329 71.8028 27.522 71.1401 27.1804C70.7508 26.9835 70.4213 26.694 70.1836 26.3401C70.0158 26.0661 69.9573 25.7434 70.0189 25.4315L69.9293 25.3803L69.7502 25.2846L43.8294 10.9824L42.3428 10.1626C42.2031 10.0875 42.0598 10.0055 41.9129 9.93034C41.4759 9.68781 41.0353 9.44529 40.6555 9.24717C40.5689 9.2035 40.4724 9.18067 40.3743 9.18067C40.2763 9.18067 40.1798 9.2035 40.0931 9.24717L40.3761 9.09345L41.1248 8.68014C41.2057 8.6403 41.2953 8.61951 41.3863 8.61951C41.4773 8.61951 41.567 8.6403 41.6478 8.68014C41.7983 8.76212 41.9523 8.85093 42.1135 8.93291L42.4037 9.09345L42.9016 9.36672C43.0162 9.42821 43.1201 9.48286 43.2097 9.53751L43.4318 9.65707L43.8151 9.86544L64.4127 21.2129L70.9896 24.8303C71.4625 25.0865 71.7347 25.3564 71.6237 25.4452L71.5843 25.4725L71.355 25.5989C71.0685 25.756 71.3013 26.1386 71.8709 26.4495C72.4404 26.7603 72.8918 26.7705 73.1748 26.6271L73.4542 26.4699C73.5141 26.4318 73.5821 26.4069 73.6533 26.3968C73.7246 26.3868 73.7972 26.3919 73.8661 26.4119L74.0166 26.4973L74.3426 26.6783L74.7438 26.8969C74.8276 26.9363 74.895 27.0017 74.9347 27.0824C74.9744 27.1631 74.9841 27.2543 74.9623 27.341C74.9676 27.3623 74.9676 27.3846 74.9623 27.4059C74.9495 27.4531 74.9289 27.498 74.9014 27.5391C74.8956 27.5621 74.8859 27.584 74.8727 27.604C74.8281 27.6826 74.774 27.756 74.7116 27.8226C74.6471 27.8944 74.5754 27.9695 74.5002 28.0378C74.425 28.1061 74.3318 28.1813 74.2351 28.2564C74.1828 28.302 74.1265 28.3431 74.0667 28.3794L73.9306 28.4716C73.8267 28.54 73.7121 28.6083 73.5939 28.6732L67.0958 32.2496L66.5692 31.4093Z" fill="white"/>
</g>
</g>
<g id="freepik--dictionaries-2--inject-124_2">
<g id="freepik--Book--inject-124_2">
<path id="Vector_44" d="M56.8563 31.7695V33.0259C56.8563 33.0259 56.3476 32.5855 56.319 32.268C56.2903 31.9505 56.8563 31.7695 56.8563 31.7695Z" fill="black"/>
<path id="Vector_45" d="M55.8431 31.4553C55.7807 31.631 55.758 31.8173 55.7764 32.002C55.7949 32.1867 55.8541 32.3655 55.9501 32.5268C56.0462 32.6881 56.177 32.8282 56.3339 32.9379C56.4908 33.0476 56.6703 33.1244 56.8605 33.1633C58.2934 33.5971 59.2068 33.1633 59.4218 33.5492C59.6367 33.9352 52.5869 37.8088 52.5869 37.8088L53.9267 32.2478L55.8431 31.4553Z" fill="#142142"/>
<path id="Vector_46" opacity="0.3" d="M55.8431 31.4553C55.7807 31.631 55.758 31.8173 55.7764 32.002C55.7949 32.1867 55.8541 32.3655 55.9501 32.5268C56.0462 32.6881 56.177 32.8282 56.3339 32.9379C56.4908 33.0476 56.6703 33.1244 56.8605 33.1633C58.2934 33.5971 59.2068 33.1633 59.4218 33.5492C59.6367 33.9352 52.5869 37.8088 52.5869 37.8088L53.9267 32.2478L55.8431 31.4553Z" fill="black"/>
<path id="Vector_47" d="M53.1818 83.4927V83.5712L52.4654 83.1852L22.2531 66.5363L24.9039 16.5486C24.9039 15.7493 25.3624 15.353 25.932 15.6673L26.9601 16.2343L55.2344 31.797L55.2057 32.0327L53.1818 83.4927Z" fill="#142142"/>
<path id="Vector_48" opacity="0.2" d="M53.1818 83.4927V83.5712L52.4654 83.1852L22.2531 66.5363L24.9039 16.5486C24.9039 15.7493 25.3624 15.353 25.932 15.6673L26.9601 16.2343L55.2344 31.797L55.2057 32.0327L53.1818 83.4927Z" fill="black"/>
<path id="Vector_49" d="M49.0762 39.3358L47.5895 37.744L55.1802 33.5664C56.3265 34.3896 57.2078 34.8303 58.2323 34.417L49.0762 39.3358Z" fill="#455A64"/>
<path id="Vector_50" d="M54.7975 32.7089L26.7954 17.2931C26.5227 17.1616 26.2215 17.0931 25.9159 17.0931C25.6104 17.0931 25.3092 17.1616 25.0365 17.2931L17.5533 21.4127L45.9494 36.9207C45.9494 36.9207 47.1781 36.6167 48.0128 37.2623C48.8474 37.9079 48.8008 37.088 48.8008 37.088L55.1808 33.5765C54.6613 32.9002 54.7975 32.7089 54.7975 32.7089Z" fill="#F5F5F5"/>
<path id="Vector_51" d="M48.5283 39.0044C48.2382 38.8473 48.1164 38.6629 48.2525 38.5877L48.4889 38.4579C48.754 38.311 48.5104 37.9353 47.9373 37.621C47.3641 37.3068 46.6871 37.1633 46.4256 37.3102L46.1856 37.44C46.0495 37.5151 45.5515 37.3614 45.0679 37.0984L45.2399 87.1715L45.9563 87.5575C46.0941 87.5901 46.2395 87.5768 46.3683 87.5199L46.6083 87.3901C46.8698 87.2467 47.5468 87.3901 48.1164 87.6941C48.686 87.9982 48.9331 88.3773 48.668 88.531L48.4316 88.6608C48.2955 88.736 48.4316 88.9204 48.7075 89.081L48.5283 39.0044Z" fill="#142142"/>
<path id="Vector_52" opacity="0.4" d="M48.5283 39.0044C48.2382 38.8473 48.1164 38.6629 48.2525 38.5877L48.4889 38.4579C48.754 38.311 48.5104 37.9353 47.9373 37.621C47.3641 37.3068 46.6871 37.1633 46.4256 37.3102L46.1856 37.44C46.0495 37.5151 45.5515 37.3614 45.0679 37.0984L45.2399 87.1715L45.9563 87.5575C46.0941 87.5901 46.2395 87.5768 46.3683 87.5199L46.6083 87.3901C46.8698 87.2467 47.5468 87.3901 48.1164 87.6941C48.686 87.9982 48.9331 88.3773 48.668 88.531L48.4316 88.6608C48.2955 88.736 48.4316 88.9204 48.7075 89.081L48.5283 39.0044Z" fill="black"/>
<path id="Vector_53" d="M45.949 87.4755V87.554L45.2326 87.168L14.9916 70.5191V22.0139C14.9916 21.2111 15.4502 20.8149 16.0197 21.1292L17.0478 21.6996L45.949 36.9207V87.4755Z" fill="#142142"/>
<path id="Vector_54" opacity="0.2" d="M45.949 87.4755V87.554L45.2326 87.168L14.9916 70.5191V22.0139C14.9916 21.2111 15.4502 20.8149 16.0197 21.1292L17.0478 21.6996L45.949 36.9207V87.4755Z" fill="black"/>
<path id="Vector_55" d="M48.1981 88.794V38.6663L50.0751 39.387V89.3542C49.7262 89.4203 49.3646 89.3858 49.0363 89.2552L48.1981 88.794Z" fill="#142142"/>
<path id="Vector_56" opacity="0.2" d="M48.1981 88.794V38.6663L50.0751 39.387V89.3542C49.7262 89.4203 49.3646 89.3858 49.0363 89.2552L48.1981 88.794Z" fill="black"/>
<path id="Vector_57" d="M60.1769 83.5917C60.1804 83.6247 60.1804 83.6579 60.1769 83.6908C60.1802 83.7112 60.1802 83.7319 60.1769 83.7523C60.164 83.7995 60.1435 83.8444 60.116 83.8855C60.107 83.9107 60.095 83.9347 60.0801 83.9572C60.0345 84.0342 59.9805 84.1063 59.9189 84.1724C59.8546 84.2494 59.7852 84.3224 59.7112 84.3911L59.4461 84.6097C59.393 84.6533 59.3368 84.6933 59.2777 84.7292L59.138 84.8215C59.0341 84.8898 58.9231 84.9581 58.8049 85.023L52.2888 88.6097C51.612 88.9864 50.8672 89.2389 50.093 89.3543V39.3871L60.2019 33.6108V83.5781L60.1769 83.5917Z" fill="#142142"/>
<path id="Vector_58" d="M50.072 46.3245V52.3466C54.1163 51.0418 57.5946 49.2723 60.1845 46.7822V40.76C57.5803 43.2399 54.1342 45.0162 50.072 46.3245Z" fill="#142142"/>
<path id="Vector_59" opacity="0.4" d="M50.072 46.3245V52.3466C54.1163 51.0418 57.5946 49.2723 60.1845 46.7822V40.76C57.5803 43.2399 54.1342 45.0162 50.072 46.3245Z" fill="white"/>
<path id="Vector_60" d="M50.072 54.5806V56.8248C54.1163 55.5165 57.5946 53.7505 60.1845 51.2603V49.0127C57.5803 51.496 54.1342 53.2723 50.072 54.5806Z" fill="#142142"/>
<path id="Vector_61" opacity="0.4" d="M50.072 54.5806V56.8248C54.1163 55.5165 57.5946 53.7505 60.1845 51.2603V49.0127C57.5803 51.496 54.1342 53.2723 50.072 54.5806Z" fill="white"/>
<path id="Vector_62" d="M52.2711 38.6287L51.7624 37.7884C51.1087 38.1755 50.3635 38.3998 49.5952 38.4409C49.6329 38.1562 49.5699 37.8677 49.4161 37.6211C49.172 37.2626 48.8368 36.9689 48.4417 36.7671C47.9875 36.514 47.4843 36.3513 46.9623 36.2889H46.8512C46.5401 36.2598 46.2267 36.3167 45.9485 36.4528L19.1286 21.6929L18.2151 21.2078L17.0545 20.5657C16.9631 20.5053 16.8564 20.4694 16.7456 20.4616C16.6347 20.4538 16.5237 20.4744 16.424 20.5212L15.3923 21.0883C15.4935 21.0389 15.6067 21.0163 15.7201 21.0229C15.8336 21.0295 15.943 21.0651 16.0371 21.1259H16.055L19.1286 22.8338L45.0673 37.1121C45.5509 37.3751 46.0524 37.5357 46.1885 37.4537L46.425 37.3239C46.5954 37.2566 46.7846 37.2457 46.9623 37.2931C47.3049 37.3499 47.6339 37.4656 47.9331 37.6347C48.5062 37.9524 48.7498 38.3179 48.4883 38.4716L48.2519 38.6014C48.1122 38.6766 48.2519 38.861 48.5277 39.0216L49.0436 39.3017C49.6095 39.5988 51.0567 39.3119 52.2711 38.6287Z" fill="#142142"/>
<path id="Vector_63" opacity="0.3" d="M52.2711 38.6287L51.7624 37.7884C51.1087 38.1755 50.3635 38.3998 49.5952 38.4409C49.6329 38.1562 49.5699 37.8677 49.4161 37.6211C49.172 37.2626 48.8368 36.9689 48.4417 36.7671C47.9875 36.514 47.4843 36.3513 46.9623 36.2889H46.8512C46.5401 36.2598 46.2267 36.3167 45.9485 36.4528L19.1286 21.6929L18.2151 21.2078L17.0545 20.5657C16.9631 20.5053 16.8564 20.4694 16.7456 20.4616C16.6347 20.4538 16.5237 20.4744 16.424 20.5212L15.3923 21.0883C15.4935 21.0389 15.6067 21.0163 15.7201 21.0229C15.8336 21.0295 15.943 21.0651 16.0371 21.1259H16.055L19.1286 22.8338L45.0673 37.1121C45.5509 37.3751 46.0524 37.5357 46.1885 37.4537L46.425 37.3239C46.5954 37.2566 46.7846 37.2457 46.9623 37.2931C47.3049 37.3499 47.6339 37.4656 47.9331 37.6347C48.5062 37.9524 48.7498 38.3179 48.4883 38.4716L48.2519 38.6014C48.1122 38.6766 48.2519 38.861 48.5277 39.0216L49.0436 39.3017C49.6095 39.5988 51.0567 39.3119 52.2711 38.6287Z" fill="black"/>
<path id="Vector_64" d="M51.7626 37.802L58.2786 34.2153L58.5437 34.0582L58.7515 33.9147C58.7585 33.9163 58.7659 33.9163 58.773 33.9147C58.0279 34.2221 57.0177 33.9147 56.3514 33.5731C55.9624 33.3786 55.6338 33.09 55.3985 32.7362C55.227 32.4622 55.1682 32.1372 55.2337 31.8242L55.1442 31.773L54.9615 31.6773L29.0227 17.3683L27.5361 16.5485C27.3964 16.4733 27.2531 16.3913 27.1063 16.3162L25.8525 15.633C25.7658 15.5893 25.6693 15.5665 25.5713 15.5665C25.4733 15.5665 25.3768 15.5893 25.2901 15.633L25.5695 15.4793L26.3182 15.0694C26.3994 15.0287 26.4897 15.0074 26.5815 15.0074C26.6732 15.0074 26.7636 15.0287 26.8448 15.0694C26.9916 15.1514 27.1457 15.2402 27.3069 15.3222L27.597 15.4827L28.0985 15.756L28.4066 15.9268L28.6251 16.0463L29.0084 16.2547L49.6061 27.6022L56.1866 31.223C56.6559 31.4758 56.9317 31.7456 56.8207 31.8345C56.8083 31.8445 56.7951 31.8537 56.7813 31.8618L56.5484 31.9882C56.2654 32.1453 56.4947 32.5279 57.0642 32.8387C57.6338 33.1496 58.0852 33.1598 58.3682 33.0163L58.6511 32.8626C58.7096 32.8229 58.7771 32.797 58.848 32.7869C58.919 32.7768 58.9915 32.7828 59.0595 32.8046L59.2136 32.8865L59.536 33.0676L59.9407 33.2862C60.0247 33.3263 60.0917 33.3925 60.1308 33.4739C60.1699 33.5552 60.1787 33.6469 60.1557 33.7337C60.1623 33.7537 60.1623 33.7751 60.1557 33.7952C60.1441 33.8422 60.1247 33.8871 60.0984 33.9284C60.0919 33.9522 60.0823 33.9752 60.0697 33.9967C60.0241 34.0737 59.9701 34.1458 59.9085 34.2119C59.8442 34.2889 59.7748 34.3619 59.7007 34.4305C59.6148 34.5022 59.5288 34.574 59.4321 34.6491C59.3802 34.6927 59.3252 34.7327 59.2673 34.7687L59.1276 34.8609C59.0237 34.9292 58.9127 34.9975 58.7909 35.0624L52.2712 38.6286L51.7626 37.802Z" fill="#142142"/>
<path id="Vector_65" opacity="0.3" d="M51.7626 37.802L58.2786 34.2153L58.5437 34.0582L58.7515 33.9147C58.7585 33.9163 58.7659 33.9163 58.773 33.9147C58.0279 34.2221 57.0177 33.9147 56.3514 33.5731C55.9624 33.3786 55.6338 33.09 55.3985 32.7362C55.227 32.4622 55.1682 32.1372 55.2337 31.8242L55.1442 31.773L54.9615 31.6773L29.0227 17.3683L27.5361 16.5485C27.3964 16.4733 27.2531 16.3913 27.1063 16.3162L25.8525 15.633C25.7658 15.5893 25.6693 15.5665 25.5713 15.5665C25.4733 15.5665 25.3768 15.5893 25.2901 15.633L25.5695 15.4793L26.3182 15.0694C26.3994 15.0287 26.4897 15.0074 26.5815 15.0074C26.6732 15.0074 26.7636 15.0287 26.8448 15.0694C26.9916 15.1514 27.1457 15.2402 27.3069 15.3222L27.597 15.4827L28.0985 15.756L28.4066 15.9268L28.6251 16.0463L29.0084 16.2547L49.6061 27.6022L56.1866 31.223C56.6559 31.4758 56.9317 31.7456 56.8207 31.8345C56.8083 31.8445 56.7951 31.8537 56.7813 31.8618L56.5484 31.9882C56.2654 32.1453 56.4947 32.5279 57.0642 32.8387C57.6338 33.1496 58.0852 33.1598 58.3682 33.0163L58.6511 32.8626C58.7096 32.8229 58.7771 32.797 58.848 32.7869C58.919 32.7768 58.9915 32.7828 59.0595 32.8046L59.2136 32.8865L59.536 33.0676L59.9407 33.2862C60.0247 33.3263 60.0917 33.3925 60.1308 33.4739C60.1699 33.5552 60.1787 33.6469 60.1557 33.7337C60.1623 33.7537 60.1623 33.7751 60.1557 33.7952C60.1441 33.8422 60.1247 33.8871 60.0984 33.9284C60.0919 33.9522 60.0823 33.9752 60.0697 33.9967C60.0241 34.0737 59.9701 34.1458 59.9085 34.2119C59.8442 34.2889 59.7748 34.3619 59.7007 34.4305C59.6148 34.5022 59.5288 34.574 59.4321 34.6491C59.3802 34.6927 59.3252 34.7327 59.2673 34.7687L59.1276 34.8609C59.0237 34.9292 58.9127 34.9975 58.7909 35.0624L52.2712 38.6286L51.7626 37.802Z" fill="black"/>
</g>
<g id="freepik--book--inject-124_2">
<path id="Vector_66" d="M41.8648 40.3843V41.6407C41.8648 41.6407 41.3561 41.2003 41.3275 40.8827C41.2988 40.5652 41.8648 40.3843 41.8648 40.3843Z" fill="black"/>
<path id="Vector_67" d="M40.848 40.0769C40.7909 40.2514 40.7723 40.4353 40.7935 40.617C40.8147 40.7987 40.8752 40.9742 40.9711 41.1324C41.0671 41.2907 41.1964 41.4283 41.3509 41.5364C41.5054 41.6446 41.6818 41.721 41.8689 41.7609C43.3018 42.1913 44.2117 41.7609 44.4302 42.1469C44.6487 42.5329 37.5953 46.4065 37.5953 46.4065L38.9351 40.8455L40.848 40.0769Z" fill="#142142"/>
<path id="Vector_68" opacity="0.3" d="M40.848 40.0769C40.7909 40.2514 40.7723 40.4353 40.7935 40.617C40.8147 40.7987 40.8752 40.9742 40.9711 41.1324C41.0671 41.2907 41.1964 41.4283 41.3509 41.5364C41.5054 41.6446 41.6818 41.721 41.8689 41.7609C43.3018 42.1913 44.2117 41.7609 44.4302 42.1469C44.6487 42.5329 37.5953 46.4065 37.5953 46.4065L38.9351 40.8455L40.848 40.0769Z" fill="black"/>
<path id="Vector_69" d="M38.1891 92.1074V92.1859L37.4726 91.7999L7.24243 75.151L9.90759 25.1633C9.90759 24.3606 10.3697 23.9643 10.9357 24.2786L11.9674 24.849L40.2381 40.4083L40.213 40.644L38.1891 92.1074Z" fill="#142142"/>
<path id="Vector_70" opacity="0.2" d="M38.1891 92.1074V92.1859L37.4726 91.7999L7.24243 75.151L9.90759 25.1633C9.90759 24.3606 10.3697 23.9643 10.9357 24.2786L11.9674 24.849L40.2381 40.4083L40.213 40.644L38.1891 92.1074Z" fill="black"/>
<path id="Vector_71" d="M34.0734 47.9505L32.5903 46.3588L40.181 42.1777C41.3273 43.0044 42.205 43.4416 43.2331 43.0317L34.0734 47.9505Z" fill="#455A64"/>
<path id="Vector_72" d="M39.8056 41.3238L11.8035 25.908C11.5309 25.7765 11.2297 25.708 10.9241 25.708C10.6186 25.708 10.3173 25.7765 10.0447 25.908L2.55072 30.0275L30.9468 45.5253C30.9468 45.5253 32.172 45.2213 33.0066 45.8669C33.8413 46.5125 33.7983 45.6961 33.7983 45.6961L40.1782 42.1812C39.6695 41.5117 39.8056 41.3238 39.8056 41.3238Z" fill="#F5F5F5"/>
<path id="Vector_73" d="M33.5363 47.6192C33.2461 47.4586 33.1207 47.2776 33.2605 47.2025L33.4969 47.0692C33.7584 46.9258 33.5148 46.55 32.9416 46.2323C32.3685 45.9147 31.695 45.778 31.4299 45.9249L31.1935 46.0547C31.0574 46.1299 30.5595 45.9762 30.0759 45.7131L30.2478 95.7863L30.9643 96.1723C31.1023 96.2013 31.2464 96.1881 31.3762 96.1347L31.6126 96.0049C31.8777 95.858 32.5512 96.0049 33.1243 96.3089C33.6975 96.6129 33.9411 96.9921 33.676 97.1458L33.4396 97.2756C33.3034 97.3507 33.4396 97.5352 33.7154 97.6923L33.5363 47.6192Z" fill="#142142"/>
<path id="Vector_74" opacity="0.25" d="M33.5363 47.6192C33.2461 47.4586 33.1207 47.2776 33.2605 47.2025L33.4969 47.0692C33.7584 46.9258 33.5148 46.55 32.9416 46.2323C32.3685 45.9147 31.695 45.778 31.4299 45.9249L31.1935 46.0547C31.0574 46.1299 30.5595 45.9762 30.0759 45.7131L30.2478 95.7863L30.9643 96.1723C31.1023 96.2013 31.2464 96.1881 31.3762 96.1347L31.6126 96.0049C31.8777 95.858 32.5512 96.0049 33.1243 96.3089C33.6975 96.6129 33.9411 96.9921 33.676 97.1458L33.4396 97.2756C33.3034 97.3507 33.4396 97.5352 33.7154 97.6923L33.5363 47.6192Z" fill="white"/>
<path id="Vector_75" d="M30.9574 96.0902V96.1688L30.241 95.7794L0 79.1339V30.6286C0 29.8259 0.462106 29.4296 1.03168 29.7439L2.05977 30.3109L30.9431 45.5423L30.9574 96.0902Z" fill="#142142"/>
<path id="Vector_76" opacity="0.4" d="M30.9574 96.0902V96.1688L30.241 95.7794L0 79.1339V30.6286C0 29.8259 0.462106 29.4296 1.03168 29.7439L2.05977 30.3109L30.9431 45.5423L30.9574 96.0902Z" fill="white"/>
<path id="Vector_77" d="M33.2022 97.4054V47.281L35.0793 48.0018V97.9656C34.732 98.0337 34.3712 98.0004 34.044 97.8699L33.2022 97.4054Z" fill="#142142"/>
<path id="Vector_78" opacity="0.4" d="M33.2022 97.4054V47.281L35.0793 48.0018V97.9656C34.732 98.0337 34.3712 98.0004 34.044 97.8699L33.2022 97.4054Z" fill="white"/>
<path id="Vector_79" d="M45.1789 92.2065C45.1824 92.2383 45.1824 92.2703 45.1789 92.3021C45.186 92.3232 45.186 92.3459 45.1789 92.367C45.1673 92.4141 45.1479 92.459 45.1216 92.5003C45.1133 92.5246 45.1012 92.5476 45.0858 92.5686C45.0411 92.6472 44.987 92.7205 44.9246 92.7872C44.8601 92.863 44.7907 92.9349 44.7168 93.0024C44.6308 93.0775 44.5448 93.1493 44.4481 93.221C44.3958 93.2665 44.3395 93.3077 44.2798 93.344L44.1436 93.4362C44.0398 93.5045 43.9287 93.5728 43.8069 93.6377L37.2945 97.2244C36.6176 97.6011 35.8729 97.8537 35.0986 97.9691V48.0018L45.1789 42.2256V92.2065Z" fill="#142142"/>
<g id="Group_2" opacity="0.7">
<path id="Vector_80" d="M45.1789 92.2065C45.1824 92.2383 45.1824 92.2703 45.1789 92.3021C45.186 92.3232 45.186 92.3459 45.1789 92.367C45.1673 92.4141 45.1479 92.459 45.1216 92.5003C45.1133 92.5246 45.1012 92.5476 45.0858 92.5686C45.0411 92.6472 44.987 92.7205 44.9246 92.7872C44.8601 92.863 44.7907 92.9349 44.7168 93.0024C44.6308 93.0775 44.5448 93.1493 44.4481 93.221C44.3958 93.2665 44.3395 93.3077 44.2798 93.344L44.1436 93.4362C44.0398 93.5045 43.9287 93.5728 43.8069 93.6377L37.2945 97.2244C36.6176 97.6011 35.8729 97.8537 35.0986 97.9691V48.0018L45.1789 42.2256V92.2065Z" fill="white"/>
</g>
<path id="Vector_81" d="M35.0804 52.1418V58.1674C39.1212 56.8591 42.6031 55.0931 45.1894 52.5996V46.5774C42.5887 49.0573 39.1212 50.8336 35.0804 52.1418Z" fill="#FAFAFA"/>
<path id="Vector_82" d="M35.0804 85.6957V91.7178C39.1212 90.413 42.6031 88.6436 45.1894 86.1534V80.1312C42.5887 82.6111 39.1212 84.4011 35.0804 85.6957Z" fill="#FAFAFA"/>
<path id="Vector_83" d="M37.297 47.257L36.7883 46.4167C36.1394 46.8003 35.4009 47.0244 34.639 47.0691C34.6751 46.7845 34.6121 46.4965 34.4599 46.2493C34.2158 45.8909 33.8806 45.5971 33.4855 45.3954C33.0307 45.1408 32.5259 44.978 32.0025 44.9172C31.9667 44.9139 31.9307 44.9139 31.895 44.9172C31.5831 44.8885 31.269 44.9441 30.9887 45.0777L4.13293 30.3075L3.22305 29.8088L2.05883 29.1666C1.96744 29.1063 1.86079 29.0703 1.74994 29.0625C1.63908 29.0547 1.52805 29.0753 1.42836 29.1222L0.400269 29.6892C0.5012 29.6391 0.614537 29.6161 0.728131 29.6227C0.841724 29.6293 0.951283 29.6653 1.04506 29.7268L4.1186 31.4347L30.0573 45.713C30.5409 45.9761 31.0424 46.1366 31.1786 46.0546L31.4186 45.9248C31.5889 45.8576 31.7777 45.8456 31.9559 45.8907C32.2981 45.9491 32.6267 46.0647 32.9267 46.2323C33.4998 46.5499 33.7434 46.9154 33.4783 47.0691L33.2419 47.1989C33.1058 47.2741 33.2419 47.4586 33.5177 47.6157L34.0336 47.8992C34.6139 48.2135 36.0647 47.9231 37.297 47.257Z" fill="#142142"/>
<path id="Vector_84" opacity="0.6" d="M37.297 47.257L36.7883 46.4167C36.1394 46.8003 35.4009 47.0244 34.639 47.0691C34.6751 46.7845 34.6121 46.4965 34.4599 46.2493C34.2158 45.8909 33.8806 45.5971 33.4855 45.3954C33.0307 45.1408 32.5259 44.978 32.0025 44.9172C31.9667 44.9139 31.9307 44.9139 31.895 44.9172C31.5831 44.8885 31.269 44.9441 30.9887 45.0777L4.13293 30.3075L3.22305 29.8088L2.05883 29.1666C1.96744 29.1063 1.86079 29.0703 1.74994 29.0625C1.63908 29.0547 1.52805 29.0753 1.42836 29.1222L0.400269 29.6892C0.5012 29.6391 0.614537 29.6161 0.728131 29.6227C0.841724 29.6293 0.951283 29.6653 1.04506 29.7268L4.1186 31.4347L30.0573 45.713C30.5409 45.9761 31.0424 46.1366 31.1786 46.0546L31.4186 45.9248C31.5889 45.8576 31.7777 45.8456 31.9559 45.8907C32.2981 45.9491 32.6267 46.0647 32.9267 46.2323C33.4998 46.5499 33.7434 46.9154 33.4783 47.0691L33.2419 47.1989C33.1058 47.2741 33.2419 47.4586 33.5177 47.6157L34.0336 47.8992C34.6139 48.2135 36.0647 47.9231 37.297 47.257Z" fill="white"/>
<path id="Vector_85" d="M36.7707 46.4167L43.2832 42.8301L43.5518 42.6729L43.7596 42.5295C43.0145 42.8403 42.0043 42.5295 41.3416 42.1879C40.9523 41.9909 40.6229 41.7015 40.3852 41.3476C40.2174 41.0735 40.1589 40.7509 40.2204 40.439L40.1308 40.3877L39.9517 40.2921L14.0309 25.9899L12.5443 25.1701C12.4046 25.0949 12.2613 25.0129 12.1144 24.9378C11.6774 24.6953 11.2368 24.4527 10.8571 24.2546C10.7704 24.2109 10.6739 24.1881 10.5759 24.1881C10.4779 24.1881 10.3813 24.2109 10.2947 24.2546L10.5777 24.1009L11.3264 23.6876C11.4072 23.6477 11.4969 23.627 11.5879 23.627C11.6789 23.627 11.7685 23.6477 11.8494 23.6876C11.9998 23.7696 12.1538 23.8584 12.315 23.9404L12.6052 24.1009L13.1031 24.3742C13.2178 24.4357 13.3216 24.4903 13.4112 24.545L13.6333 24.6645L14.0166 24.8729L34.6143 36.2204L41.1912 39.8378C41.664 40.094 41.9363 40.3638 41.8252 40.4526L41.7858 40.48L41.5566 40.6063C41.27 40.7635 41.5028 41.1461 42.0724 41.4569C42.642 41.7677 43.0933 41.778 43.3763 41.6345L43.6557 41.4774C43.7156 41.4393 43.7836 41.4143 43.8549 41.4043C43.9261 41.3942 43.9988 41.3994 44.0677 41.4193L44.2181 41.5047L44.5441 41.6858L44.9453 41.9044C45.0292 41.9438 45.0965 42.0092 45.1362 42.0899C45.1759 42.1706 45.1857 42.2618 45.1638 42.3484C45.1692 42.3698 45.1692 42.392 45.1638 42.4133C45.151 42.4605 45.1305 42.5055 45.1029 42.5466C45.0971 42.5695 45.0875 42.5914 45.0743 42.6115C45.0296 42.69 44.9755 42.7634 44.9131 42.8301C44.8486 42.9018 44.777 42.977 44.7017 43.0453C44.6265 43.1136 44.5334 43.1887 44.4367 43.2639C44.3844 43.3094 44.328 43.3506 44.2683 43.3869L44.1322 43.4791C44.0283 43.5474 43.9137 43.6157 43.7954 43.6806L37.2973 47.257L36.7707 46.4167Z" fill="#142142"/>
<path id="Vector_86" opacity="0.6" d="M36.7707 46.4167L43.2832 42.8301L43.5518 42.6729L43.7596 42.5295C43.0145 42.8403 42.0043 42.5295 41.3416 42.1879C40.9523 41.9909 40.6229 41.7015 40.3852 41.3476C40.2174 41.0735 40.1589 40.7509 40.2204 40.439L40.1308 40.3877L39.9517 40.2921L14.0309 25.9899L12.5443 25.1701C12.4046 25.0949 12.2613 25.0129 12.1144 24.9378C11.6774 24.6953 11.2368 24.4527 10.8571 24.2546C10.7704 24.2109 10.6739 24.1881 10.5759 24.1881C10.4779 24.1881 10.3813 24.2109 10.2947 24.2546L10.5777 24.1009L11.3264 23.6876C11.4072 23.6477 11.4969 23.627 11.5879 23.627C11.6789 23.627 11.7685 23.6477 11.8494 23.6876C11.9998 23.7696 12.1538 23.8584 12.315 23.9404L12.6052 24.1009L13.1031 24.3742C13.2178 24.4357 13.3216 24.4903 13.4112 24.545L13.6333 24.6645L14.0166 24.8729L34.6143 36.2204L41.1912 39.8378C41.664 40.094 41.9363 40.3638 41.8252 40.4526L41.7858 40.48L41.5566 40.6063C41.27 40.7635 41.5028 41.1461 42.0724 41.4569C42.642 41.7677 43.0933 41.778 43.3763 41.6345L43.6557 41.4774C43.7156 41.4393 43.7836 41.4143 43.8549 41.4043C43.9261 41.3942 43.9988 41.3994 44.0677 41.4193L44.2181 41.5047L44.5441 41.6858L44.9453 41.9044C45.0292 41.9438 45.0965 42.0092 45.1362 42.0899C45.1759 42.1706 45.1857 42.2618 45.1638 42.3484C45.1692 42.3698 45.1692 42.392 45.1638 42.4133C45.151 42.4605 45.1305 42.5055 45.1029 42.5466C45.0971 42.5695 45.0875 42.5914 45.0743 42.6115C45.0296 42.69 44.9755 42.7634 44.9131 42.8301C44.8486 42.9018 44.777 42.977 44.7017 43.0453C44.6265 43.1136 44.5334 43.1887 44.4367 43.2639C44.3844 43.3094 44.328 43.3506 44.2683 43.3869L44.1322 43.4791C44.0283 43.5474 43.9137 43.6157 43.7954 43.6806L37.2973 47.257L36.7707 46.4167Z" fill="white"/>
</g>
</g>
</g>
</svg>
