<svg width="22" height="22" viewBox="0 0 22 22" fill="none" xmlns="http://www.w3.org/2000/svg">
<path d="M21.5 13.625V19.75C21.5 20.2141 21.3156 20.6592 20.9874 20.9874C20.6592 21.3156 20.2141 21.5 19.75 21.5H2.25C1.78587 21.5 1.34075 21.3156 1.01256 20.9874C0.684374 20.6592 0.5 20.2141 0.5 19.75V13.625C0.5 13.3929 0.592187 13.1704 0.756282 13.0063C0.920376 12.8422 1.14294 12.75 1.375 12.75C1.60706 12.75 1.82962 12.8422 1.99372 13.0063C2.15781 13.1704 2.25 13.3929 2.25 13.625V19.75H19.75V13.625C19.75 13.3929 19.8422 13.1704 20.0063 13.0063C20.1704 12.8422 20.3929 12.75 20.625 12.75C20.8571 12.75 21.0796 12.8422 21.2437 13.0063C21.4078 13.1704 21.5 13.3929 21.5 13.625ZM10.3809 14.2441C10.4622 14.3254 10.5587 14.39 10.6649 14.434C10.7712 14.478 10.885 14.5007 11 14.5007C11.115 14.5007 11.2288 14.478 11.3351 14.434C11.4413 14.39 11.5378 14.3254 11.6191 14.2441L15.9941 9.86906C16.0754 9.78777 16.1398 9.69125 16.1838 9.58503C16.2278 9.47882 16.2505 9.36497 16.2505 9.25C16.2505 9.13503 16.2278 9.02118 16.1838 8.91497C16.1398 8.80875 16.0754 8.71223 15.9941 8.63094C15.9128 8.54964 15.8163 8.48515 15.71 8.44116C15.6038 8.39716 15.49 8.37451 15.375 8.37451C15.26 8.37451 15.1462 8.39716 15.04 8.44116C14.9337 8.48515 14.8372 8.54964 14.7559 8.63094L11.875 11.513V1.375C11.875 1.14294 11.7828 0.920376 11.6187 0.756282C11.4546 0.592187 11.2321 0.5 11 0.5C10.7679 0.5 10.5454 0.592187 10.3813 0.756282C10.2172 0.920376 10.125 1.14294 10.125 1.375V11.513L7.24406 8.63094C7.07988 8.46675 6.85719 8.37451 6.625 8.37451C6.39281 8.37451 6.17012 8.46675 6.00594 8.63094C5.84175 8.79512 5.74951 9.01781 5.74951 9.25C5.74951 9.48219 5.84175 9.70488 6.00594 9.86906L10.3809 14.2441Z" fill="white"/>
</svg>
