<svg width="25" height="25" viewBox="0 0 25 25" fill="none" xmlns="http://www.w3.org/2000/svg">
<g clip-path="url(#clip0_193_789)">
<path d="M6.46535 25.9372C5.57422 25.7988 4.71715 25.4938 3.93902 25.038C2.18402 24.0316 0.874266 22.2289 0.453932 20.2432C0.290349 19.4664 0.269766 18.4849 0.291432 12.4356C0.312016 5.92583 0.296849 6.26166 0.606682 5.18916C0.760516 4.65508 1.18843 3.7375 1.49827 3.27491C2.64118 1.57408 4.32252 0.48208 6.40577 0.0866633C6.82177 0.00757998 7.4241 -3.3506e-06 12.9664 -3.3506e-06C19.7383 -3.3506e-06 19.5152 -0.00975337 20.6213 0.340163C21.6952 0.687618 22.6751 1.27697 23.4853 2.06282C24.2956 2.84866 24.9146 3.81002 25.2948 4.87283C25.6523 5.88791 25.6696 6.05041 25.6945 8.72408L25.7162 11.1399L25.2926 11.4302C24.6881 11.843 23.8951 12.5786 22.7836 13.7594C21.5031 15.1201 20.2096 16.3811 19.5531 16.9087C18.135 18.0472 16.8361 18.6972 15.5166 18.928C14.8298 19.0472 13.6944 19.0006 13.0228 18.8251C12.4237 18.6691 12.4627 18.6431 12.2363 19.3277C12.0523 19.8695 11.9366 20.4322 11.8918 21.0026L11.8582 21.4435L11.7 21.411C10.3838 21.1499 9.07943 20.0189 8.57568 18.7027C8.40536 18.2823 8.31003 17.8354 8.29402 17.3821L8.27668 17.0137L7.94193 16.7061C7.24427 16.0669 6.79035 15.2847 6.64735 14.4733C6.41768 13.1809 7.01568 11.7195 8.31352 10.4043C9.68285 9.01441 11.7011 7.9235 13.6793 7.501C14.3921 7.34933 15.6488 7.30925 16.2825 7.41975C17.5154 7.63425 18.5218 8.25716 19.1479 9.19533C19.3451 9.48891 19.3592 9.53116 19.3397 9.79658C19.3347 9.99167 19.2649 10.1796 19.1414 10.3307C18.6377 11.0359 17.1394 11.791 15.5274 12.1507C12.6837 12.7844 10.8756 11.9968 11.1583 10.2451C11.1865 10.0685 11.2017 9.91575 11.1919 9.906C11.1573 9.87133 10.8745 10.0187 10.569 10.231C10.0501 10.5928 9.59077 11.297 9.43152 11.9719C9.39252 12.1409 9.37735 12.4117 9.39468 12.6761C9.41635 13.0347 9.4521 13.1679 9.60268 13.4734C9.70235 13.6749 9.9006 13.9609 10.0447 14.1115L10.3047 14.3834L10.2007 14.5156C9.894 14.9174 9.64697 15.3615 9.46727 15.834C9.26341 16.4692 9.22427 17.1458 9.35352 17.8002C9.4651 18.2997 9.8096 18.9865 10.1541 19.3906C10.4163 19.6993 11.0175 20.2182 11.1139 20.2182C11.1399 20.2182 11.1616 20.1662 11.1616 20.1034C11.1627 19.8542 11.3609 19.0493 11.5148 18.6658C11.973 17.5197 12.9783 16.5425 14.5698 15.6975C14.8352 15.5567 15.6011 15.1883 16.2728 14.8774C17.7461 14.1949 18.551 13.7778 18.993 13.4637C20.267 12.5612 21.0546 11.2266 21.3113 9.53658C21.4045 8.91908 21.4045 7.76641 21.3113 7.14566C20.9127 4.5045 18.9334 2.70833 16.0919 2.4115C12.9231 2.07891 8.88985 4.52725 6.40468 8.29075C5.19568 10.1216 4.37885 12.1528 4.03543 14.1873C3.90218 14.976 3.85235 16.4407 3.93468 17.1665C4.14377 19.0125 4.82518 20.501 5.99627 21.6688C6.58271 22.2583 7.26848 22.7398 8.0221 23.0912C10.5874 24.3154 13.4279 24.3425 15.925 23.1682C17.004 22.6601 18.0635 21.8725 19.1999 20.7307C20.3049 19.6202 21.0524 18.694 23.0913 15.9012C24.2179 14.3596 25.1106 13.3358 25.5526 13.0791L25.7151 12.9859L25.6945 16.3345C25.675 19.5769 25.6707 19.7004 25.5613 20.1922C24.9113 23.0934 22.8096 25.2146 19.9333 25.8711L19.4263 25.987L13.1701 25.9978C8.0416 26.0065 6.83368 25.9957 6.46535 25.9372Z" fill="white"/>
</g>
<defs>
<clipPath id="clip0_193_789">
<rect width="26" height="26" fill="white"/>
</clipPath>
</defs>
</svg>
