<svg width="30" height="30" viewBox="0 0 30 30" fill="none" xmlns="http://www.w3.org/2000/svg">
<rect width="30" height="30" rx="5" fill="#00A945"/>
<path d="M11.8575 15.5061C9.36901 13.6456 7.59564 11.5992 6.62734 10.4487C6.3276 10.0925 6.22938 9.8319 6.17033 9.3728C5.96811 7.8008 5.86701 7.0148 6.32795 6.5074C6.7889 6 7.60404 6 9.23433 6H20.7657C22.396 6 23.2111 6 23.672 6.5074C24.133 7.0148 24.0319 7.8008 23.8297 9.37281C23.7706 9.83191 23.6724 10.0925 23.3726 10.4487C22.403 11.6006 20.6261 13.6507 18.1326 15.5135C17.907 15.6821 17.7583 15.9567 17.7307 16.2614C17.4837 18.992 17.2559 20.4876 17.1141 21.2442C16.8853 22.4657 15.1532 23.2006 14.226 23.8563C13.6741 24.2466 13.0043 23.782 12.9328 23.1778C12.7964 22.0261 12.5396 19.6864 12.2593 16.2614C12.2341 15.9539 12.0849 15.6761 11.8575 15.5061Z" stroke="white" stroke-width="1.4" stroke-linecap="round" stroke-linejoin="round"/>
</svg>
