<svg width="30" height="31" viewBox="0 0 30 31" fill="none" xmlns="http://www.w3.org/2000/svg">
<ellipse cx="15" cy="15.5" rx="15" ry="15.5" fill="#E84118"/>
<path d="M23.5367 21.0001L23.5251 21.1685C23.4409 22.5485 22.2935 23.6316 20.883 23.6316H18.9261C18.7156 23.5906 18.5577 23.4001 18.5577 23.179V20.0116C18.4724 18.9064 17.5566 18.0422 16.4314 18.0422H13.463C12.3577 18.1274 11.4945 19.0432 11.4945 20.1695V23.0106L11.484 23.0643L11.4619 23.2537C11.4314 23.4748 11.2314 23.6316 10.9998 23.6316H8.94718C7.55665 23.5474 6.46191 22.4001 6.46191 21.0001V12.4737L6.47349 12.3053C6.52612 11.8737 6.74718 11.4632 7.11455 11.1906L13.5145 6.03164L13.6735 5.91585C14.5156 5.359 15.6524 5.38953 16.4524 6.03164L22.8735 11.1685L23.0103 11.2853C23.3366 11.6001 23.5251 12.0222 23.5367 12.4737V21.0001Z" fill="white"/>
</svg>
