<svg width="28" height="28" viewBox="0 0 28 28" fill="none" xmlns="http://www.w3.org/2000/svg">
<g id="Home">
<path id="Vector" d="M24.5002 12.6383V22.75C24.5002 23.2141 24.3159 23.6592 23.9877 23.9874C23.6595 24.3156 23.2144 24.5 22.7502 24.5H18.3752C17.9111 24.5 17.466 24.3156 17.1378 23.9874C16.8096 23.6592 16.6252 23.2141 16.6252 22.75V18.375C16.6252 18.1429 16.5331 17.9203 16.369 17.7563C16.2049 17.5922 15.9823 17.5 15.7502 17.5H12.2502C12.0182 17.5 11.7956 17.5922 11.6315 17.7563C11.4674 17.9203 11.3752 18.1429 11.3752 18.375V22.75C11.3752 23.2141 11.1909 23.6592 10.8627 23.9874C10.5345 24.3156 10.0894 24.5 9.62524 24.5H5.25024C4.78612 24.5 4.341 24.3156 4.01281 23.9874C3.68462 23.6592 3.50024 23.2141 3.50024 22.75V12.6383C3.50021 12.3961 3.55045 12.1565 3.64778 11.9347C3.74512 11.7129 3.88743 11.5138 4.06571 11.3498L12.8157 3.09419L12.8277 3.08216C13.1499 2.78918 13.5697 2.62683 14.0052 2.62683C14.4406 2.62683 14.8604 2.78918 15.1826 3.08216C15.1863 3.08644 15.1903 3.09046 15.1946 3.09419L23.9446 11.3498C24.1211 11.5146 24.2616 11.7142 24.3572 11.9359C24.4528 12.1576 24.5015 12.3968 24.5002 12.6383Z" fill="white"/>
</g>
</svg>
