<svg width="24" height="26" viewBox="0 0 24 26" fill="none" xmlns="http://www.w3.org/2000/svg">
<path id="Vector" d="M23.354 10.4702L13.354 1.03522C13.3491 1.03096 13.3445 1.02636 13.3402 1.02147C12.9721 0.686639 12.4923 0.501099 11.9946 0.501099C11.4969 0.501099 11.0172 0.686639 10.649 1.02147L10.6352 1.03522L0.646479 10.4702C0.442726 10.6576 0.280084 10.8852 0.168843 11.1387C0.0576029 11.3921 0.000186828 11.6659 0.000228905 11.9427V23.499C0.000228905 24.0294 0.210942 24.5381 0.586015 24.9132C0.961088 25.2883 1.4698 25.499 2.00023 25.499H8.00023C8.53066 25.499 9.03937 25.2883 9.41444 24.9132C9.78951 24.5381 10.0002 24.0294 10.0002 23.499V17.499H14.0002V23.499C14.0002 24.0294 14.2109 24.5381 14.586 24.9132C14.9611 25.2883 15.4698 25.499 16.0002 25.499H22.0002C22.5307 25.499 23.0394 25.2883 23.4144 24.9132C23.7895 24.5381 24.0002 24.0294 24.0002 23.499V11.9427C24.0003 11.6659 23.9429 11.3921 23.8316 11.1387C23.7204 10.8852 23.5577 10.6576 23.354 10.4702ZM22.0002 23.499H16.0002V17.499C16.0002 16.9685 15.7895 16.4598 15.4144 16.0848C15.0394 15.7097 14.5307 15.499 14.0002 15.499H10.0002C9.4698 15.499 8.96109 15.7097 8.58602 16.0848C8.21094 16.4598 8.00023 16.9685 8.00023 17.499V23.499H2.00023V11.9427L2.01398 11.9302L12.0002 2.49897L21.9877 11.9277L22.0015 11.9402L22.0002 23.499Z" fill="white"/>
</svg>
