<svg width="18" height="15" viewBox="0 0 18 15" fill="none" xmlns="http://www.w3.org/2000/svg">
<path d="M17.4563 6.41877L11.2063 0.168765C11.1407 0.103292 11.0572 0.0587146 10.9664 0.0406618C10.8755 0.0226091 10.7813 0.0318912 10.6957 0.0673358C10.6101 0.10278 10.5369 0.162798 10.4854 0.239807C10.4339 0.316817 10.4064 0.407365 10.4063 0.500015V3.79689C6.15002 4.07736 1.0008 8.09376 0.411738 13.2235C0.392607 13.3868 0.42551 13.552 0.50576 13.6956C0.586011 13.8391 0.709515 13.9537 0.858679 14.0229C1.00784 14.0922 1.17506 14.1126 1.33651 14.0813C1.49795 14.0499 1.6454 13.9685 1.75783 13.8485C2.63752 12.9102 5.79689 9.92189 10.4063 9.72892V13C10.4064 13.0927 10.4339 13.1832 10.4854 13.2602C10.5369 13.3372 10.6101 13.3973 10.6957 13.4327C10.7813 13.4681 10.8755 13.4774 10.9664 13.4594C11.0572 13.4413 11.1407 13.3967 11.2063 13.3313L17.4563 7.08127C17.5441 6.99337 17.5934 6.87423 17.5934 6.75002C17.5934 6.6258 17.5441 6.50666 17.4563 6.41877ZM11.3438 11.8688V9.25002C11.3438 9.1257 11.2944 9.00647 11.2065 8.91856C11.1186 8.83065 10.9993 8.78127 10.875 8.78127C8.70861 8.78127 6.59689 9.34767 4.60002 10.4649C3.43613 11.1187 2.36404 11.9239 1.41174 12.8594C1.77893 10.7844 2.98674 8.79689 4.84924 7.2133C6.69299 5.65158 8.94455 4.71877 10.875 4.71877C10.9993 4.71877 11.1186 4.66938 11.2065 4.58147C11.2944 4.49356 11.3438 4.37434 11.3438 4.25002V1.63205L16.4617 6.75002L11.3438 11.8688Z" fill="white"/>
</svg>
