<svg xmlns:dc="http://purl.org/dc/elements/1.1/" xmlns:cc="http://creativecommons.org/ns#" xmlns:rdf="http://www.w3.org/1999/02/22-rdf-syntax-ns#" xmlns:svg="http://www.w3.org/2000/svg" xmlns="http://www.w3.org/2000/svg" xmlns:sodipodi="http://sodipodi.sourceforge.net/DTD/sodipodi-0.dtd" xmlns:inkscape="http://www.inkscape.org/namespaces/inkscape" viewBox="0 0 12.7 15.875" version="1.1" x="0px" y="0px"><g transform="translate(0,-284.29998)"><path style="" d="m 6.4078,287.38904 v -0.89116 a 0.0578,0.0578 0 0 0 -0.1156,0 v 0.89116 a 0.23115511,0.23115511 0 0 0 -0.035,0.0119 3.799199,3.799199 0 0 0 -2.2779,3.3749 H 8.72 a 3.799199,3.799199 0 0 0 -2.2779,-3.3749 0.23115511,0.23115511 0 0 0 -0.035,-0.0119 z" fill="#000000" stroke="none"/><path style="" d="m 1.8061,285.98055 0.048,2.37875 H 1.0997 l 0.048,-2.37875 z" fill="#000000" stroke="none"/><path style="" d="M 2.17,289.26585 V 288.4748 H 0.7842 v 0.79105 z" fill="#000000" stroke="none"/><path style="" d="m 2.1128,289.38136 -0.2045,0.27442 H 1.0459 l -0.2044,-0.27442 z" fill="#000000" stroke="none"/><path style="" d="M 1.8809,289.77128 H 1.0734 l -0.1554,6.69941 h 1.1182 z" fill="#000000" stroke="none"/><path style="" d="m 4.9317,296.47069 h 2.8364 v -2.65526 a 1.4182171,1.4182171 0 0 0 -2.8364,0 z" fill="#000000" stroke="none"/><path style="" d="m 4.8161,296.47069 v -2.65526 a 1.5338,1.5338 0 0 1 3.0676,0 v 2.65526 h 1.4309 v -5.57934 H 3.3852 v 5.57934 z" fill="#000000" stroke="none"/><path style="" d="m 9.4302,292.59106 v 3.87963 h 1.1178 l 0.09,-3.87963 z" fill="#000000" stroke="none"/><path style="" d="m 10.8938,285.98055 -0.048,2.37875 h 0.7545 l -0.048,-2.37875 z" fill="#000000" stroke="none"/><path style="" d="m 10.5298,289.26585 v -0.79105 h 1.3859 v 0.79105 z" fill="#000000" stroke="none"/><path style="" d="m 10.5871,289.38136 0.2045,0.27442 h 0.8623 l 0.2045,-0.27442 z" fill="#000000" stroke="none"/><path style="" d="m 11.6265,289.77128 0.1553,6.69941 h -1.1181 l 0.1553,-6.69941 z" fill="#000000" stroke="none"/><path style="" d="m 11.5037,285.36451 a 0.9254677,0.9254677 0 0 0 -0.2232,-0.17571 v -0.30172 a 0.05778879,0.05778879 0 0 0 -0.1155,0 v 0.30172 a 0.9254677,0.9254677 0 0 0 -0.2232,0.17571 0.52009898,0.52009898 0 0 0 -0.1391,0.35422 v 0.14631 h 0.8401 v -0.14631 a 0.52009898,0.52009898 0 0 0 -0.1391,-0.35422 z" fill="#000000" stroke="none"/><path style="" d="m 2.1518,296.47069 h 1.1179 v -3.87963 H 2.0619 Z" fill="#000000" stroke="none"/><path style="" d="m 1.057,285.71873 v 0.14631 h 0.8402 v -0.14631 A 0.52009898,0.52009898 0 0 0 1.7581,285.36451 0.9254677,0.9254677 0 0 0 1.5349,285.1888 v -0.30172 a 0.0578,0.0578 0 0 0 -0.1156,0 v 0.30172 a 0.9254677,0.9254677 0 0 0 -0.2232,0.17571 0.52009898,0.52009898 0 0 0 -0.1391,0.35422 z" fill="#000000" stroke="none"/></g><text x="0" y="27.7" fill="#000000" font-size="5px" font-weight="bold" font-family="'Helvetica Neue', Helvetica, Arial-Unicode, Arial, Sans-serif">Created by Phạm Thanh Lộc</text><text x="0" y="32.7" fill="#000000" font-size="5px" font-weight="bold" font-family="'Helvetica Neue', Helvetica, Arial-Unicode, Arial, Sans-serif">from the Noun Project</text></svg>