<svg xmlns:dc="http://purl.org/dc/elements/1.1/" xmlns:cc="http://creativecommons.org/ns#" xmlns:rdf="http://www.w3.org/1999/02/22-rdf-syntax-ns#" xmlns:svg="http://www.w3.org/2000/svg" xmlns="http://www.w3.org/2000/svg" xmlns:sodipodi="http://sodipodi.sourceforge.net/DTD/sodipodi-0.dtd" xmlns:inkscape="http://www.inkscape.org/namespaces/inkscape" viewBox="0 0 12.7 15.875" version="1.1" x="0px" y="0px"><g transform="translate(0,-284.29998)"><path style="" d="m 1.5854,284.82887 a 0.0565,0.0565 0 0 0 -0.055,0.0568 v 0.32091 a 0.19769984,0.19769984 0 0 0 -0.037,0.0151 1.0175701,1.0175701 0 0 0 -0.2636,0.2036 0.62134233,0.62134233 0 0 0 -0.1664,0.42375 v 0.25527 h 0.089 l -0.047,2.32492 H 0.7969 v 0.96118 l 0.2832,0.38087 -0.155,6.69983 H 11.775 l -0.1555,-6.69983 0.2837,-0.38087 v -0.96118 h -0.3085 l -0.047,-2.32492 h 0.089 v -0.25527 a 0.62134233,0.62134233 0 0 0 -0.1659,-0.42375 1.0175701,1.0175701 0 0 0 -0.2641,-0.2036 0.19769984,0.19769984 0 0 0 -0.037,-0.0151 v -0.32091 a 0.0565,0.0565 0 0 0 -0.1126,0 v 0.32091 a 0.19769984,0.19769984 0 0 0 -0.037,0.0151 1.0175701,1.0175701 0 0 0 -0.2636,0.2036 0.62134233,0.62134233 0 0 0 -0.1664,0.42375 v 0.25527 h 0.089 l -0.047,2.32492 h -0.3085 v 0.96118 l 0.2836,0.38087 -0.062,2.68147 H 9.3618 v -1.6614 H 8.781 a 3.8264999,3.8264999 0 0 0 -2.2944,-3.40235 0.33891399,0.33891399 0 0 0 -0.079,-0.0233 v -0.94311 a 0.0564857,0.0564857 0 0 0 -0.1126,0 v 0.94311 a 0.33891399,0.33891399 0 0 0 -0.079,0.0233 3.8264999,3.8264999 0 0 0 -2.2944,3.40235 H 3.3407 v 1.6614 H 2.1578 l -0.062,-2.68147 0.2816,-0.38087 v -0.96118 H 2.0689 l -0.047,-2.32492 h 0.089 v -0.25527 a 0.62134233,0.62134233 0 0 0 -0.1659,-0.42375 1.0175701,1.0175701 0 0 0 -0.264,-0.2036 0.19769984,0.19769984 0 0 0 -0.037,-0.0151 v -0.32091 a 0.0565,0.0565 0 0 0 -0.058,-0.0568 z m 0,0.48266 a 0.08472851,0.08472851 0 0 1 0.04,0.01 0.90459876,0.90459876 0 0 1 0.2346,0.18087 v 0 a 0.50837102,0.50837102 0 0 1 0.1359,0.34676 v 0.14261 H 1.1747 v -0.14261 a 0.50837102,0.50837102 0 0 1 0.136,-0.34676 0.90459876,0.90459876 0 0 1 0.2346,-0.18087 0.08472851,0.08472851 0 0 1 0.039,-0.01 z m 9.5255,0 a 0.08472851,0.08472851 0 0 1 0.041,0.01 0.90459876,0.90459876 0 0 1 0.2346,0.18087 0.50837102,0.50837102 0 0 1 0.1359,0.34676 v 0.14261 h -0.8211 v -0.14261 a 0.50837102,0.50837102 0 0 1 0.1359,-0.34676 0.90459876,0.90459876 0 0 1 0.2346,-0.18087 0.08472851,0.08472851 0 0 1 0.039,-0.01 z m -9.847,0.79271 h 0.6434 l 0.047,2.32492 H 1.2169 Z m 9.5261,0 h 0.6434 l 0.047,2.32492 H 10.743 Z m -4.4385,1.36944 a 0.22594265,0.22594265 0 0 1 0.088,0.0185 3.7135286,3.7135286 0 0 1 2.2262,3.29901 H 4.0318 a 3.7135286,3.7135286 0 0 1 2.2268,-3.29901 0.22594265,0.22594265 0 0 1 0.093,-0.0185 z m -5.4431,1.06814 h 1.3545 v 0.77359 H 0.9084 Z m 9.5261,0 h 1.3544 v 0.77359 h -1.3544 z m -9.4697,0.88625 h 1.2423 l -0.2,0.26821 H 1.1642 Z m 9.5255,0 h 1.2428 l -0.2,0.26821 h -0.8428 z m -9.2992,0.38137 h 0.7896 l 0.1514,6.54844 H 1.0392 Z m 9.526,0 h 0.7891 l 0.152,6.54844 h -1.093 z m -7.2662,1.09503 h 5.7955 v 5.45341 H 7.848 v -2.59569 a 1.499193,1.499193 0 0 0 -2.9982,0 v 2.59569 H 3.4509 Z m 2.8432,1.48672 a 1.3862218,1.3862218 0 0 1 1.4408,1.371 v 2.59569 H 4.9624 v -2.59569 a 1.3862218,1.3862218 0 0 1 1.3317,-1.371 z m -4.1367,0.17468 h 1.1809 v 3.79201 h -1.093 z m 7.2022,0 h 1.1808 l -0.088,3.79201 H 9.36 Z" fill="#000000" stroke="none"/></g><text x="0" y="27.7" fill="#000000" font-size="5px" font-weight="bold" font-family="'Helvetica Neue', Helvetica, Arial-Unicode, Arial, Sans-serif">Created by Phạm Thanh Lộc</text><text x="0" y="32.7" fill="#000000" font-size="5px" font-weight="bold" font-family="'Helvetica Neue', Helvetica, Arial-Unicode, Arial, Sans-serif">from the Noun Project</text></svg>