<svg xmlns="http://www.w3.org/2000/svg" width="25.661" height="22.479" viewBox="0 0 25.661 22.479">
  <path id="Combined_Shape" data-name="Combined Shape" d="M7.841,18.465v-8.4A3.994,3.994,0,0,1,8.879,7.378L15.339.266a.814.814,0,0,1,.8-.241l1.19.294A2.406,2.406,0,0,1,18.968,1.7a2.371,2.371,0,0,1-.105,2.127L17.175,6.836a.782.782,0,0,0,.011.8.8.8,0,0,0,.7.4h4.785a2.964,2.964,0,0,1,2.915,3.632l-1.73,7.865a4.053,4.053,0,0,1-3.906,2.953H11.891A4.037,4.037,0,0,1,7.841,18.465ZM1.6,22.479A1.61,1.61,0,0,1,0,20.863V7.938A1.609,1.609,0,0,1,1.6,6.323H6.415V22.479Z" transform="translate(0 0)" fill="#0278ae"/>
</svg>
