<svg width="56" height="56" viewBox="0 0 56 56" fill="none" xmlns="http://www.w3.org/2000/svg">
<g id="NotePencil">
<path id="Vector" d="M49 26.2499V45.4999C49 46.4282 48.6313 47.3184 47.9749 47.9748C47.3185 48.6312 46.4283 48.9999 45.5 48.9999H10.5C9.57174 48.9999 8.6815 48.6312 8.02513 47.9748C7.36875 47.3184 7 46.4282 7 45.4999V10.4999C7 9.57165 7.36875 8.68141 8.02513 8.02504C8.6815 7.36866 9.57174 6.99991 10.5 6.99991H29.75C30.2141 6.99991 30.6593 7.18429 30.9874 7.51248C31.3156 7.84066 31.5 8.28578 31.5 8.74991C31.5 9.21404 31.3156 9.65916 30.9874 9.98735C30.6593 10.3155 30.2141 10.4999 29.75 10.4999H10.5V45.4999H45.5V26.2499C45.5 25.7858 45.6844 25.3407 46.0126 25.0125C46.3408 24.6843 46.7859 24.4999 47.25 24.4999C47.7141 24.4999 48.1593 24.6843 48.4874 25.0125C48.8156 25.3407 49 25.7858 49 26.2499ZM50.2381 15.238L29.2381 36.238C29.0755 36.4005 28.8824 36.5293 28.67 36.6171C28.4575 36.705 28.2299 36.7501 28 36.7499H21C20.5359 36.7499 20.0908 36.5655 19.7626 36.2373C19.4344 35.9092 19.25 35.464 19.25 34.9999V27.9999C19.2498 27.77 19.2949 27.5424 19.3828 27.3299C19.4706 27.1175 19.5994 26.9244 19.7619 26.7618L40.7619 5.76179C40.9244 5.59908 41.1174 5.47 41.3299 5.38193C41.5423 5.29386 41.77 5.24854 42 5.24854C42.23 5.24854 42.4577 5.29386 42.6701 5.38193C42.8826 5.47 43.0756 5.59908 43.2381 5.76179L50.2381 12.7618C50.4008 12.9243 50.5299 13.1173 50.618 13.3298C50.7061 13.5422 50.7514 13.7699 50.7514 13.9999C50.7514 14.2299 50.7061 14.4576 50.618 14.6701C50.5299 14.8825 50.4008 15.0755 50.2381 15.238ZM46.5194 13.9999L42 9.47397L39.2241 12.2499L43.75 16.7758L46.5194 13.9999Z" fill="white"/>
</g>
</svg>
