<svg width="22" height="27" viewBox="0 0 22 27" fill="none" xmlns="http://www.w3.org/2000/svg">
<path d="M15.5827 2.83594V5.0282M10.9993 2.83594V5.0282M6.41602 2.83594V5.0282" stroke="#787878" stroke-width="1.5" stroke-linecap="round" stroke-linejoin="round"/>
<path d="M3.20801 11.6051C3.20801 7.98801 3.20801 6.17948 4.14771 5.0558C5.08741 3.93213 6.59983 3.93213 9.62467 3.93213H12.3747C15.3995 3.93213 16.9119 3.93213 17.8516 5.0558C18.7913 6.17948 18.7913 7.98801 18.7913 11.6051V17.0857C18.7913 20.7028 18.7913 22.5113 17.8516 23.635C16.9119 24.7587 15.3995 24.7587 12.3747 24.7587H9.62467C6.59983 24.7587 5.08741 24.7587 4.14771 23.635C3.20801 22.5113 3.20801 20.7028 3.20801 17.0857V11.6051Z" stroke="#787878" stroke-width="1.5" stroke-linecap="round" stroke-linejoin="round"/>
<path d="M7.33301 17.0856H10.9997M7.33301 11.605H14.6663" stroke="#787878" stroke-width="1.5" stroke-linecap="round"/>
</svg>
