<svg width="22" height="24" viewBox="0 0 22 24" fill="none" xmlns="http://www.w3.org/2000/svg">
<path d="M21.1729 17.7292C20.5548 16.6597 19.6361 13.6335 19.6361 9.68087C19.6361 7.30715 18.6974 5.03066 17.0265 3.3522C15.3557 1.67373 13.0895 0.730774 10.7266 0.730774C8.3636 0.730774 6.09744 1.67373 4.42658 3.3522C2.75572 5.03066 1.81705 7.30715 1.81705 9.68087C1.81705 13.6346 0.897141 16.6597 0.279045 17.7292C0.121202 18.0011 0.0375242 18.3101 0.0364485 18.6248C0.0353728 18.9396 0.116938 19.2491 0.272918 19.522C0.428898 19.795 0.653778 20.0219 0.924878 20.1797C1.19598 20.3375 1.50371 20.4207 1.81705 20.421H6.36201C6.56756 21.4314 7.11422 22.3395 7.90951 22.9916C8.70481 23.6438 9.69993 24 10.7266 24C11.7532 24 12.7483 23.6438 13.5436 22.9916C14.3389 22.3395 14.8855 21.4314 15.0911 20.421H19.6361C19.9493 20.4206 20.2569 20.3372 20.5278 20.1793C20.7988 20.0214 21.0235 19.7945 21.1793 19.5216C21.3352 19.2486 21.4167 18.9392 21.4155 18.6245C21.4144 18.3099 21.3307 18.0011 21.1729 17.7292ZM10.7266 22.211C10.174 22.2108 9.63501 22.0386 9.18387 21.718C8.73273 21.3975 8.39158 20.9443 8.20739 20.421H13.2457C13.0615 20.9443 12.7204 21.3975 12.2692 21.718C11.8181 22.0386 11.2791 22.2108 10.7266 22.211ZM1.81705 18.631C2.67459 17.1497 3.59895 13.7174 3.59895 9.68087C3.59895 7.7819 4.34989 5.9607 5.68657 4.61793C7.02326 3.27516 8.83619 2.52079 10.7266 2.52079C12.6169 2.52079 14.4298 3.27516 15.7665 4.61793C17.1032 5.9607 17.8542 7.7819 17.8542 9.68087C17.8542 13.714 18.7763 17.1464 19.6361 18.631H1.81705Z" fill="white"/>
</svg>
