<svg width="40" height="48" viewBox="0 0 40 48" fill="none" xmlns="http://www.w3.org/2000/svg">
<path d="M35.75 4H32.25V2.25C32.25 1.78587 32.0656 1.34075 31.7374 1.01256C31.4093 0.684374 30.9641 0.5 30.5 0.5C30.0359 0.5 29.5907 0.684374 29.2626 1.01256C28.9344 1.34075 28.75 1.78587 28.75 2.25V4H21.75V2.25C21.75 1.78587 21.5656 1.34075 21.2374 1.01256C20.9093 0.684374 20.4641 0.5 20 0.5C19.5359 0.5 19.0908 0.684374 18.7626 1.01256C18.4344 1.34075 18.25 1.78587 18.25 2.25V4H11.25V2.25C11.25 1.78587 11.0656 1.34075 10.7374 1.01256C10.4092 0.684374 9.96413 0.5 9.5 0.5C9.03587 0.5 8.59075 0.684374 8.26256 1.01256C7.93437 1.34075 7.75 1.78587 7.75 2.25V4H4.25C3.32174 4 2.4315 4.36875 1.77513 5.02513C1.11875 5.6815 0.75 6.57174 0.75 7.5V40.75C0.75 42.6065 1.4875 44.387 2.80025 45.6997C4.11301 47.0125 5.89348 47.75 7.75 47.75H32.25C34.1065 47.75 35.887 47.0125 37.1997 45.6997C38.5125 44.387 39.25 42.6065 39.25 40.75V7.5C39.25 6.57174 38.8812 5.6815 38.2249 5.02513C37.5685 4.36875 36.6783 4 35.75 4ZM27 33.75H13C12.5359 33.75 12.0908 33.5656 11.7626 33.2374C11.4344 32.9092 11.25 32.4641 11.25 32C11.25 31.5359 11.4344 31.0907 11.7626 30.7626C12.0908 30.4344 12.5359 30.25 13 30.25H27C27.4641 30.25 27.9093 30.4344 28.2374 30.7626C28.5656 31.0907 28.75 31.5359 28.75 32C28.75 32.4641 28.5656 32.9092 28.2374 33.2374C27.9093 33.5656 27.4641 33.75 27 33.75ZM27 26.75H13C12.5359 26.75 12.0908 26.5656 11.7626 26.2374C11.4344 25.9093 11.25 25.4641 11.25 25C11.25 24.5359 11.4344 24.0908 11.7626 23.7626C12.0908 23.4344 12.5359 23.25 13 23.25H27C27.4641 23.25 27.9093 23.4344 28.2374 23.7626C28.5656 24.0908 28.75 24.5359 28.75 25C28.75 25.4641 28.5656 25.9093 28.2374 26.2374C27.9093 26.5656 27.4641 26.75 27 26.75Z" fill="white"/>
</svg>
