<svg width="18" height="20" viewBox="0 0 18 20" fill="none" xmlns="http://www.w3.org/2000/svg">
<path d="M16.6557 9.46942C16.7254 9.53908 16.7807 9.62179 16.8184 9.71284C16.8562 9.80389 16.8756 9.90149 16.8756 10C16.8756 10.0986 16.8562 10.1962 16.8184 10.2873C16.7807 10.3783 16.7254 10.461 16.6557 10.5307L8.96347 18.2182C7.97872 19.2028 6.64318 19.7559 5.25063 19.7558C3.85809 19.7557 2.52261 19.2024 1.538 18.2177C0.553381 17.233 0.000278328 15.8974 0.000366221 14.5049C0.000454114 13.1123 0.553725 11.7769 1.53847 10.7922L10.8441 1.34973C11.5471 0.645958 12.5009 0.250284 13.4957 0.249756C14.4905 0.249229 15.4447 0.643891 16.1485 1.34692C16.8522 2.04995 17.2479 3.00376 17.2484 3.99853C17.249 4.99329 16.8543 5.94752 16.1513 6.6513L6.84378 16.0938C6.42109 16.5165 5.8478 16.754 5.25003 16.754C4.65226 16.754 4.07897 16.5165 3.65628 16.0938C3.23359 15.6711 2.99613 15.0978 2.99613 14.5C2.99612 13.9023 3.23359 13.329 3.65628 12.9063L11.4657 4.97317C11.5341 4.90019 11.6164 4.84164 11.7078 4.80095C11.7991 4.76026 11.8977 4.73827 11.9977 4.73625C12.0977 4.73424 12.1971 4.75225 12.2901 4.78923C12.383 4.82621 12.4676 4.8814 12.5389 4.95157C12.6102 5.02173 12.6667 5.10545 12.7052 5.19779C12.7437 5.29013 12.7632 5.38923 12.7628 5.48926C12.7624 5.58929 12.742 5.68822 12.7027 5.78023C12.6635 5.87225 12.6063 5.95548 12.5344 6.02505L4.72409 13.9666C4.65416 14.036 4.59858 14.1185 4.56052 14.2093C4.52247 14.3002 4.50268 14.3976 4.50229 14.4961C4.50189 14.5946 4.52091 14.6922 4.55824 14.7834C4.59557 14.8746 4.6505 14.9575 4.71987 15.0274C4.78925 15.0973 4.87172 15.1529 4.96257 15.191C5.05342 15.229 5.15089 15.2488 5.24939 15.2492C5.34789 15.2496 5.44551 15.2306 5.53666 15.1932C5.62782 15.1559 5.71072 15.101 5.78065 15.0316L15.0872 5.5938C15.5099 5.17198 15.7477 4.59952 15.7483 4.00237C15.7489 3.40521 15.5123 2.83227 15.0905 2.40958C14.6687 1.98689 14.0962 1.74908 13.4991 1.74846C12.9019 1.74785 12.329 1.98448 11.9063 2.4063L2.60253 11.845C2.25399 12.193 1.97741 12.6063 1.78857 13.0611C1.59973 13.516 1.50234 14.0036 1.50194 14.4961C1.50155 14.9886 1.59817 15.4764 1.78629 15.9316C1.9744 16.3868 2.25033 16.8004 2.59831 17.149C2.94629 17.4975 3.35952 17.7741 3.81439 17.9629C4.26926 18.1518 4.75688 18.2491 5.24939 18.2495C5.7419 18.2499 6.22967 18.1533 6.68484 17.9652C7.14002 17.7771 7.55368 17.5012 7.90222 17.1532L15.5953 9.46567C15.7365 9.32562 15.9274 9.24734 16.1263 9.24805C16.3251 9.24875 16.5155 9.32838 16.6557 9.46942Z" fill="#BCBCC0"/>
</svg>
