<svg width="56" height="56" viewBox="0 0 56 56" fill="none" xmlns="http://www.w3.org/2000/svg">
<g id="PhoneCall">
<path id="Vector" d="M33.3091 8.29723C33.3685 8.07514 33.4711 7.86693 33.611 7.68449C33.7509 7.50206 33.9253 7.34898 34.1244 7.234C34.3235 7.11902 34.5433 7.04439 34.7712 7.01438C34.9992 6.98438 35.2308 6.99957 35.4528 7.05911C38.697 7.90556 41.657 9.60152 44.0278 11.9723C46.3985 14.3431 48.0945 17.303 48.941 20.5472C49.0005 20.7693 49.0157 21.0009 48.9857 21.2288C48.9557 21.4568 48.881 21.6766 48.7661 21.8756C48.6511 22.0747 48.498 22.2492 48.3156 22.3891C48.1331 22.529 47.9249 22.6316 47.7028 22.691C47.555 22.7298 47.4029 22.7497 47.25 22.75C46.8647 22.7502 46.4901 22.6231 46.1843 22.3885C45.8786 22.154 45.6588 21.8251 45.5591 21.4529C44.8691 18.8041 43.4851 16.3873 41.5498 14.4516C39.6145 12.516 37.198 11.1315 34.5494 10.441C34.3271 10.3818 34.1187 10.2794 33.936 10.1396C33.7533 9.9998 33.6 9.82536 33.4848 9.62625C33.3696 9.42715 33.2948 9.20728 33.2646 8.97924C33.2345 8.75119 33.2496 8.51944 33.3091 8.29723ZM32.7994 17.441C35.816 18.246 37.7541 20.1863 38.5591 23.2029C38.6588 23.5751 38.8786 23.904 39.1843 24.1385C39.4901 24.3731 39.8647 24.5002 40.25 24.5C40.4029 24.4997 40.555 24.4798 40.7028 24.441C40.9249 24.3816 41.1331 24.279 41.3156 24.1391C41.498 23.9992 41.6511 23.8247 41.7661 23.6256C41.881 23.4266 41.9557 23.2068 41.9857 22.9788C42.0157 22.7509 42.0005 22.5193 41.941 22.2972C40.821 18.106 37.8941 15.1791 33.7028 14.0591C33.4808 13.9998 33.2492 13.9848 33.0214 14.015C32.7935 14.0451 32.5738 14.1199 32.3749 14.235C32.1759 14.35 32.0015 14.5032 31.8618 14.6856C31.722 14.8681 31.6195 15.0763 31.5602 15.2983C31.5009 15.5204 31.4859 15.752 31.516 15.9798C31.5462 16.2077 31.621 16.4273 31.736 16.6263C31.8511 16.8253 32.0042 16.9996 32.1867 17.1394C32.3691 17.2792 32.5773 17.3817 32.7994 17.441ZM48.6435 34.6632L38.3381 30.0454L38.3097 30.0322C37.7747 29.8034 37.1911 29.7116 36.6117 29.7651C36.0323 29.8185 35.4754 30.0156 34.9913 30.3385C34.9343 30.3761 34.8795 30.417 34.8272 30.461L29.5028 35C26.1297 33.3616 22.6472 29.9054 21.0088 26.576L25.5544 21.1707C25.5981 21.116 25.6397 21.0613 25.6791 21.0022C25.995 20.5195 26.1867 19.9661 26.2371 19.3913C26.2875 18.8165 26.195 18.2382 25.9678 17.7079V17.6816L21.3369 7.3588C21.0366 6.66594 20.5204 6.08877 19.8651 5.71344C19.2099 5.33812 18.4508 5.18477 17.7013 5.2763C14.7371 5.66634 12.0163 7.12204 10.0471 9.3715C8.07777 11.621 6.99466 14.5104 7.00002 17.5C7.00002 34.8688 21.1313 49 38.5 49C41.4897 49.0054 44.3791 47.9223 46.6286 45.953C48.878 43.9837 50.3337 41.2629 50.7238 38.2988C50.8155 37.5495 50.6624 36.7906 50.2875 36.1354C49.9126 35.4802 49.3359 34.9638 48.6435 34.6632Z" fill="white"/>
</g>
</svg>
