<svg width="29" height="48" viewBox="0 0 29 48" fill="none" xmlns="http://www.w3.org/2000/svg">
<path d="M10.0675 32.496C10.1102 29.68 10.4302 27.4613 11.0275 25.84C11.6675 24.176 12.7555 22.6187 14.2915 21.168C16.1262 19.4187 17.2782 18.2667 17.7475 17.712C19.1555 16.0907 19.8595 14.4053 19.8595 12.656C19.8595 10.8213 19.4328 9.43467 18.5795 8.496C17.7262 7.51466 16.4462 7.024 14.7395 7.024C13.1182 7.024 11.8168 7.536 10.8355 8.56C9.89683 9.54133 9.40617 10.8853 9.3635 12.592H0.7235C0.766167 8.70933 2.02483 5.65866 4.4995 3.44C6.97417 1.22133 10.3875 0.112 14.7395 0.112C19.0915 0.112 22.4622 1.17867 24.8515 3.312C27.2835 5.44533 28.4995 8.45333 28.4995 12.336C28.4995 14.0853 28.1155 15.7493 27.3475 17.328C26.6222 18.9067 25.4702 20.4853 23.8915 22.064C23.0808 22.7893 21.9075 23.92 20.3715 25.456C19.4755 26.352 18.8355 27.3547 18.4515 28.464C18.0675 29.5307 17.8542 30.8747 17.8115 32.496H10.0675ZM14.0995 47.344C12.6062 47.344 11.3475 46.832 10.3235 45.808C9.34217 44.784 8.8515 43.5253 8.8515 42.032C8.8515 40.5813 9.34217 39.3653 10.3235 38.384C11.3475 37.4027 12.6062 36.912 14.0995 36.912C15.5928 36.912 16.8302 37.4027 17.8115 38.384C18.8355 39.3653 19.3475 40.5813 19.3475 42.032C19.3475 43.5253 18.8355 44.784 17.8115 45.808C16.8302 46.832 15.5928 47.344 14.0995 47.344Z" fill="white" fill-opacity="0.2"/>
</svg>
