<svg width="24" height="24" viewBox="0 0 24 24" fill="none" xmlns="http://www.w3.org/2000/svg">
<g id="PaperPlaneRight">
<path id="Vector" d="M21.75 11.9897C21.7507 12.257 21.68 12.5196 21.5451 12.7503C21.4103 12.9811 21.2163 13.1716 20.9831 13.3022L5.24156 22.3032C5.01539 22.4314 4.75999 22.4992 4.5 22.5C4.26023 22.4995 4.02407 22.4416 3.81132 22.331C3.59857 22.2204 3.41542 22.0605 3.27723 21.8645C3.13905 21.6686 3.04984 21.4424 3.0171 21.2049C2.98436 20.9673 3.00904 20.7254 3.08906 20.4994L5.65312 13.0041C5.67839 12.9299 5.72624 12.8656 5.78997 12.82C5.8537 12.7744 5.93009 12.75 6.00844 12.75H12.75C12.8528 12.7503 12.9546 12.7293 13.049 12.6886C13.1434 12.6478 13.2284 12.5881 13.2987 12.5131C13.369 12.4381 13.4232 12.3495 13.4578 12.2526C13.4925 12.1558 13.5068 12.0529 13.5 11.9503C13.483 11.7575 13.3938 11.5782 13.2502 11.4483C13.1066 11.3185 12.9192 11.2476 12.7256 11.25H6.015C5.93677 11.2502 5.86046 11.2258 5.79675 11.1805C5.73303 11.1351 5.68511 11.0709 5.65969 10.9969L3.08719 3.49691C2.98701 3.20952 2.97662 2.89846 3.05741 2.60502C3.13819 2.31159 3.30632 2.04967 3.53948 1.85405C3.77264 1.65844 4.05978 1.53837 4.36279 1.5098C4.6658 1.48123 4.97032 1.54551 5.23594 1.6941L20.9859 10.6838C21.2176 10.8142 21.4104 11.0039 21.5447 11.2334C21.6789 11.4628 21.7498 11.7239 21.75 11.9897Z" fill="white"/>
</g>
</svg>
