<svg xmlns="http://www.w3.org/2000/svg" width="27.535" height="22.479" viewBox="0 0 27.535 22.479">
  <path id="Show" d="M13.754,22.479c-5.685,0-10.8-4.055-13.673-10.845a1.037,1.037,0,0,1,0-.8C2.954,4.049,8.065,0,13.754,0h.014a12.652,12.652,0,0,1,7.9,2.875,19.965,19.965,0,0,1,5.789,7.956,1.037,1.037,0,0,1,0,.8c-2.876,6.791-7.993,10.845-13.686,10.845ZM8.394,11.239a5.367,5.367,0,1,0,5.373-5.45A5.411,5.411,0,0,0,8.394,11.239Zm2.017,0a3.692,3.692,0,0,1,.067-.668h.068a2.774,2.774,0,0,0,2.753-2.7,2.664,2.664,0,0,1,.471-.041,3.4,3.4,0,1,1-3.358,3.406Z" fill="#01a9b4"/>
</svg>
