<svg width="20" height="20" viewBox="0 0 20 20" fill="none" xmlns="http://www.w3.org/2000/svg">
<path d="M17.6859 5.84137C17.6314 5.78537 17.5664 5.74076 17.4946 5.71015C17.4227 5.67954 17.3455 5.66354 17.2674 5.6631C17.1893 5.66265 17.1119 5.67775 17.0397 5.70753C16.9675 5.73732 16.902 5.78118 16.8469 5.83655C16.7918 5.89193 16.7483 5.95772 16.719 6.03009C16.6896 6.10245 16.6749 6.17994 16.6758 6.25803C16.6767 6.33612 16.6931 6.41325 16.7242 6.48493C16.7552 6.5566 16.8001 6.62138 16.8565 6.67549C17.7088 7.5266 18.2018 8.67251 18.2337 9.87662C18.2655 11.0807 17.8338 12.2511 17.0276 13.1461C16.976 13.2036 16.9362 13.2706 16.9105 13.3435C16.8848 13.4164 16.8736 13.4936 16.8778 13.5707C16.8819 13.6479 16.9012 13.7235 16.9345 13.7932C16.9678 13.8629 17.0146 13.9253 17.0721 13.977C17.1295 14.0286 17.1966 14.0684 17.2695 14.0941C17.3423 14.1198 17.4195 14.131 17.4967 14.1268C17.5738 14.1227 17.6494 14.1034 17.7191 14.0701C17.7888 14.0368 17.8513 13.99 17.9029 13.9326C18.9111 12.813 19.4507 11.349 19.4103 9.84303C19.3699 8.33703 18.7526 6.90407 17.6859 5.8402V5.84137Z" fill="black" fill-opacity="0.2"/>
<path d="M14.7816 7.91638C14.6706 8.02591 14.6076 8.17506 14.6065 8.33104C14.6054 8.48702 14.6663 8.63705 14.7758 8.74814C15.1074 9.08039 15.2939 9.53047 15.2946 9.99991C15.2941 10.4349 15.1321 10.8542 14.8399 11.1764C14.7353 11.2922 14.6811 11.4448 14.6891 11.6007C14.6971 11.7565 14.7667 11.9027 14.8825 12.0073C14.9984 12.1118 15.151 12.166 15.3068 12.158C15.4626 12.15 15.6089 12.0804 15.7134 11.9646C16.2179 11.4064 16.4889 10.6757 16.4702 9.92348C16.4516 9.17125 16.1449 8.45488 15.6134 7.92226C15.5039 7.8112 15.3547 7.74819 15.1987 7.74709C15.0428 7.74598 14.8927 7.80688 14.7816 7.91638Z" fill="black" fill-opacity="0.2"/>
<path d="M13.2042 0.64982C13.1065 0.601038 12.9971 0.580428 12.8884 0.590297C12.7796 0.600167 12.6757 0.640128 12.5884 0.705703L6.4707 5.29394V14.7057L12.5884 19.2939C12.6902 19.3703 12.814 19.4116 12.9413 19.4116C13.0973 19.4116 13.2469 19.3496 13.3572 19.2393C13.4676 19.129 13.5295 18.9794 13.5295 18.8233V1.17629C13.5296 1.06698 13.4992 0.959813 13.4417 0.86682C13.3843 0.773826 13.302 0.698683 13.2042 0.64982Z" fill="black" fill-opacity="0.2"/>
<path d="M1.17676 7.68762V12.3123C1.17738 12.7909 1.36778 13.2497 1.7062 13.5882C2.04463 13.9266 2.50345 14.117 2.98205 14.1176H5.2944V5.88232H2.98205C2.50345 5.88295 2.04463 6.07335 1.7062 6.41177C1.36778 6.75019 1.17738 7.20902 1.17676 7.68762Z" fill="black" fill-opacity="0.2"/>
</svg>
