<svg width="28" height="28" viewBox="0 0 28 28" fill="none" xmlns="http://www.w3.org/2000/svg">
<g id="SpeakerHigh">
<path id="Vector" d="M17.0089 2.71354C16.8618 2.64184 16.6975 2.61285 16.5347 2.62986C16.3719 2.64688 16.2171 2.70921 16.088 2.80979L8.44922 8.74995H3.5C3.03587 8.74995 2.59075 8.93432 2.26256 9.26251C1.93437 9.5907 1.75 10.0358 1.75 10.4999V17.4999C1.75 17.9641 1.93437 18.4092 2.26256 18.7374C2.59075 19.0656 3.03587 19.2499 3.5 19.2499H8.44922L16.088 25.1901C16.2172 25.2906 16.3721 25.3528 16.535 25.3696C16.6978 25.3865 16.8621 25.3573 17.0092 25.2854C17.1563 25.2135 17.2803 25.1018 17.3671 24.9629C17.4538 24.8241 17.4999 24.6637 17.5 24.4999V3.49995C17.5 3.33602 17.454 3.17539 17.3672 3.03635C17.2803 2.89731 17.1562 2.78546 17.0089 2.71354ZM3.5 10.4999H7.875V17.4999H3.5V10.4999ZM15.75 22.7106L9.625 17.9473V10.0526L15.75 5.28932V22.7106ZM21.6562 11.1081C22.36 11.907 22.7483 12.9352 22.7483 13.9999C22.7483 15.0647 22.36 16.0929 21.6562 16.8918C21.5017 17.0617 21.2865 17.164 21.0572 17.1766C20.8278 17.1892 20.6027 17.1111 20.4305 16.9592C20.2582 16.8073 20.1525 16.5938 20.1363 16.3647C20.1201 16.1356 20.1946 15.9093 20.3438 15.7346C20.7658 15.2553 20.9986 14.6386 20.9986 13.9999C20.9986 13.3613 20.7658 12.7446 20.3438 12.2653C20.1946 12.0906 20.1201 11.8643 20.1363 11.6352C20.1525 11.4061 20.2582 11.1926 20.4305 11.0407C20.6027 10.8888 20.8278 10.8107 21.0572 10.8233C21.2865 10.8359 21.5017 10.9382 21.6562 11.1081ZM27.125 13.9999C27.1263 16.1527 26.3329 18.2301 24.897 19.834C24.7412 20.0027 24.5252 20.1033 24.2958 20.1141C24.0664 20.125 23.842 20.0453 23.6708 19.8921C23.4997 19.7389 23.3957 19.5246 23.3812 19.2954C23.3667 19.0662 23.4429 18.8405 23.5933 18.667C24.7411 17.3836 25.3756 15.7222 25.3756 14.0005C25.3756 12.2787 24.7411 10.6174 23.5933 9.33401C23.5145 9.24876 23.4535 9.14869 23.4137 9.03962C23.374 8.93056 23.3564 8.81468 23.3619 8.69873C23.3673 8.58278 23.3959 8.46909 23.4457 8.36426C23.4956 8.25944 23.5658 8.16559 23.6523 8.08817C23.7388 8.01075 23.8398 7.95131 23.9495 7.91332C24.0592 7.87533 24.1753 7.85954 24.2912 7.86688C24.407 7.87421 24.5202 7.90452 24.6243 7.95604C24.7283 8.00756 24.821 8.07927 24.897 8.16698C26.3333 9.77021 27.1267 11.8475 27.125 13.9999Z" fill="white"/>
</g>
</svg>
