<svg width="24" height="26" viewBox="0 0 24 26" fill="none" xmlns="http://www.w3.org/2000/svg">
<path id="Vector" d="M20.082 4.10336C19.0353 3.0461 17.7903 2.2057 16.4183 1.63026C15.0464 1.05482 13.5743 0.755647 12.0866 0.749878H12.0002C8.98331 0.749878 6.08999 1.94833 3.95674 4.08158C1.82348 6.21484 0.625031 9.10816 0.625031 12.125V18.2501C0.625031 18.9463 0.901596 19.614 1.39389 20.1063C1.88618 20.5986 2.55386 20.8752 3.25007 20.8752H5.00009C5.69629 20.8752 6.36398 20.5986 6.85627 20.1063C7.34856 19.614 7.62513 18.9463 7.62513 18.2501V13.8751C7.62513 13.1789 7.34856 12.5112 6.85627 12.0189C6.36398 11.5266 5.69629 11.25 5.00009 11.25H2.41443C2.58318 9.42555 3.26848 7.68698 4.39002 6.23807C5.51155 4.78916 7.02285 3.68995 8.74678 3.06928C10.4707 2.4486 12.3358 2.33218 14.1236 2.73365C15.9113 3.13512 17.5476 4.03785 18.8406 5.33604C20.421 6.92451 21.393 9.01772 21.587 11.25H19.0003C18.3041 11.25 17.6364 11.5266 17.1441 12.0189C16.6518 12.5112 16.3752 13.1789 16.3752 13.8751V18.2501C16.3752 18.9463 16.6518 19.614 17.1441 20.1063C17.6364 20.5986 18.3041 20.8752 19.0003 20.8752H21.6253C21.6253 21.5714 21.3488 22.239 20.8565 22.7313C20.3642 23.2236 19.6965 23.5002 19.0003 23.5002H12.8752C12.6431 23.5002 12.4206 23.5924 12.2565 23.7565C12.0924 23.9206 12.0002 24.1431 12.0002 24.3752C12.0002 24.6073 12.0924 24.8298 12.2565 24.9939C12.4206 25.158 12.6431 25.2502 12.8752 25.2502H19.0003C20.1606 25.2502 21.2734 24.7893 22.0939 23.9688C22.9144 23.1483 23.3753 22.0355 23.3753 20.8752V12.125C23.381 10.637 23.0931 9.16256 22.5279 7.78606C21.9628 6.40955 21.1316 5.15809 20.082 4.10336ZM5.00009 13C5.23216 13 5.45472 13.0922 5.61882 13.2563C5.78291 13.4204 5.8751 13.643 5.8751 13.8751V18.2501C5.8751 18.4822 5.78291 18.7048 5.61882 18.8688C5.45472 19.0329 5.23216 19.1251 5.00009 19.1251H3.25007C3.018 19.1251 2.79544 19.0329 2.63134 18.8688C2.46724 18.7048 2.37505 18.4822 2.37505 18.2501V13H5.00009ZM19.0003 19.1251C18.7682 19.1251 18.5457 19.0329 18.3816 18.8688C18.2175 18.7048 18.1253 18.4822 18.1253 18.2501V13.8751C18.1253 13.643 18.2175 13.4204 18.3816 13.2563C18.5457 13.0922 18.7682 13 19.0003 13H21.6253V19.1251H19.0003Z" fill="white"/>
</svg>
