<svg width="28" height="28" viewBox="0 0 28 28" fill="none" xmlns="http://www.w3.org/2000/svg">
<path d="M25.9087 2.86454C25.7732 2.74748 25.6082 2.66962 25.4317 2.63936C25.2551 2.6091 25.0737 2.62759 24.9068 2.69283L2.74091 11.3674C2.42677 11.4895 2.16081 11.7104 1.98308 11.9968C1.80534 12.2832 1.72545 12.6196 1.75543 12.9553C1.78542 13.291 1.92365 13.6079 2.14931 13.8583C2.37498 14.1086 2.67587 14.2789 3.00669 14.3434L8.74997 15.4711V21.875C8.74884 22.2238 8.8525 22.5649 9.04752 22.8542C9.24253 23.1434 9.51992 23.3673 9.84372 23.497C10.167 23.6291 10.5226 23.6608 10.8641 23.588C11.2057 23.5152 11.5174 23.3414 11.7589 23.0891L14.5283 20.2169L18.9218 24.0625C19.2388 24.3437 19.6477 24.4993 20.0714 24.5C20.2571 24.4999 20.4416 24.4707 20.6183 24.4136C20.9069 24.322 21.1666 24.1564 21.3714 23.9332C21.5761 23.71 21.7188 23.4371 21.7853 23.1416L26.2248 3.82814C26.2645 3.65396 26.2561 3.47225 26.2004 3.3025C26.1447 3.13275 26.0439 2.98136 25.9087 2.86454ZM20.0736 22.75L11.0304 14.8203L24.0461 5.49173L20.0736 22.75Z" fill="white"/>
</svg>
