<svg width="28" height="28" viewBox="0 0 28 28" fill="none" xmlns="http://www.w3.org/2000/svg">
<g id="User">
<path id="Vector" d="M25.2579 24.0625C25.1811 24.1956 25.0706 24.3061 24.9376 24.3829C24.8045 24.4597 24.6536 24.5001 24.5 24.5H3.49996C3.34644 24.4999 3.19566 24.4593 3.06277 24.3825C2.92988 24.3056 2.81955 24.1951 2.74286 24.0622C2.66617 23.9292 2.62582 23.7783 2.62585 23.6248C2.62589 23.4713 2.66632 23.3205 2.74308 23.1875C4.40886 20.3077 6.97589 18.2427 9.97168 17.2638C8.48983 16.3816 7.33852 15.0374 6.69457 13.4376C6.05061 11.8378 5.94961 10.0709 6.40708 8.40809C6.86455 6.74532 7.85518 5.27869 9.22686 4.23343C10.5985 3.18817 12.2754 2.62207 14 2.62207C15.7245 2.62207 17.4014 3.18817 18.7731 4.23343C20.1447 5.27869 21.1354 6.74532 21.5928 8.40809C22.0503 10.0709 21.9493 11.8378 21.3053 13.4376C20.6614 15.0374 19.5101 16.3816 18.0282 17.2638C21.024 18.2427 23.5911 20.3077 25.2568 23.1875C25.3338 23.3205 25.3744 23.4713 25.3746 23.6249C25.3748 23.7785 25.3346 23.9294 25.2579 24.0625Z" fill="white"/>
</g>
</svg>
