<svg width="28" height="28" viewBox="0 0 28 28" fill="none" xmlns="http://www.w3.org/2000/svg">
<g id="User">
<path id="Vector" d="M25.2569 23.1875C23.5911 20.3077 21.0241 18.2427 18.0283 17.2638C19.5101 16.3816 20.6614 15.0374 21.3054 13.4376C21.9494 11.8378 22.0503 10.0709 21.5929 8.40809C21.1354 6.74532 20.1448 5.27869 18.7731 4.23343C17.4014 3.18817 15.7246 2.62207 14 2.62207C12.2755 2.62207 10.5986 3.18817 9.22691 4.23343C7.85523 5.27869 6.86459 6.74532 6.40713 8.40809C5.94966 10.0709 6.05066 11.8378 6.69462 13.4376C7.33857 15.0374 8.48988 16.3816 9.97172 17.2638C6.97594 18.2416 4.40891 20.3066 2.74313 23.1875C2.68204 23.2872 2.64153 23.398 2.62397 23.5135C2.60641 23.629 2.61216 23.7469 2.64089 23.8601C2.66962 23.9734 2.72075 24.0798 2.79125 24.1729C2.86175 24.2661 2.9502 24.3442 3.05138 24.4027C3.15256 24.4611 3.26442 24.4987 3.38036 24.5132C3.4963 24.5277 3.61397 24.5189 3.72644 24.4872C3.8389 24.4555 3.94387 24.4016 4.03516 24.3286C4.12646 24.2557 4.20222 24.1652 4.25797 24.0625C6.3186 20.5013 9.96079 18.375 14 18.375C18.0392 18.375 21.6814 20.5013 23.742 24.0625C23.7978 24.1652 23.8736 24.2557 23.9648 24.3286C24.0561 24.4016 24.1611 24.4555 24.2736 24.4872C24.386 24.5189 24.5037 24.5277 24.6197 24.5132C24.7356 24.4987 24.8475 24.4611 24.9486 24.4027C25.0498 24.3442 25.1383 24.2661 25.2088 24.1729C25.2793 24.0798 25.3304 23.9734 25.3591 23.8601C25.3878 23.7469 25.3936 23.629 25.376 23.5135C25.3585 23.398 25.318 23.2872 25.2569 23.1875ZM7.87501 10.5C7.87501 9.28864 8.23423 8.10443 8.90725 7.09718C9.58028 6.08993 10.5369 5.30487 11.6561 4.84128C12.7753 4.3777 14.0068 4.2564 15.1949 4.49274C16.3831 4.72907 17.4744 5.31242 18.331 6.16902C19.1876 7.02561 19.771 8.11698 20.0073 9.30512C20.2437 10.4933 20.1224 11.7248 19.6588 12.844C19.1952 13.9632 18.4101 14.9198 17.4029 15.5928C16.3956 16.2658 15.2114 16.625 14 16.625C12.3761 16.6233 10.8192 15.9774 9.6709 14.8292C8.52261 13.6809 7.87674 12.124 7.87501 10.5Z" fill="white"/>
</g>
</svg>
