<svg width="26" height="26" viewBox="0 0 26 26" fill="none" xmlns="http://www.w3.org/2000/svg">
<g id="BookmarkSimple">
<path id="Vector" d="M18.6003 3.3999H7.40029C6.97595 3.3999 6.56898 3.56847 6.26892 3.86853C5.96886 4.16859 5.80029 4.57556 5.80029 4.9999V22.5999C5.80036 22.7427 5.83864 22.8828 5.91115 23.0058C5.98366 23.1288 6.08776 23.2301 6.21265 23.2993C6.33754 23.3685 6.47867 23.403 6.62139 23.3992C6.76411 23.3955 6.90322 23.3536 7.02429 23.2779L13.0003 19.5429L18.9773 23.2779C19.0983 23.3533 19.2374 23.395 19.3799 23.3986C19.5225 23.4023 19.6634 23.3677 19.7882 23.2986C19.9129 23.2294 20.0169 23.1282 20.0893 23.0053C20.1618 22.8825 20.2001 22.7425 20.2003 22.5999V4.9999C20.2003 4.57556 20.0317 4.16859 19.7317 3.86853C19.4316 3.56847 19.0246 3.3999 18.6003 3.3999Z" fill="white"/>
</g>
</svg>
