<svg width="26" height="26" viewBox="0 0 26 26" fill="none" xmlns="http://www.w3.org/2000/svg">
<g id="ArchiveBox">
<path id="Vector" d="M22.5164 7.0419L20.9164 3.8419C20.8499 3.70899 20.7477 3.59723 20.6212 3.51916C20.4947 3.44109 20.349 3.3998 20.2004 3.3999H5.80039C5.65177 3.3998 5.50605 3.44109 5.37959 3.51916C5.25312 3.59723 5.1509 3.70899 5.08439 3.8419L3.48439 7.0419C3.42925 7.15319 3.4005 7.2757 3.40039 7.3999V20.9999C3.40039 21.4242 3.56896 21.8312 3.86902 22.1313C4.16908 22.4313 4.57604 22.5999 5.00039 22.5999H21.0004C21.4247 22.5999 21.8317 22.4313 22.1318 22.1313C22.4318 21.8312 22.6004 21.4242 22.6004 20.9999V7.3999C22.6003 7.2757 22.5715 7.15319 22.5164 7.0419ZM16.7664 15.9659L13.5664 19.1659C13.4921 19.2403 13.4039 19.2993 13.3067 19.3396C13.2096 19.3798 13.1055 19.4005 13.0004 19.4005C12.8953 19.4005 12.7912 19.3798 12.694 19.3396C12.5969 19.2993 12.5087 19.2403 12.4344 19.1659L9.23439 15.9659C9.08428 15.8158 8.99995 15.6122 8.99995 15.3999C8.99995 15.1876 9.08428 14.984 9.23439 14.8339C9.3845 14.6838 9.5881 14.5995 9.80039 14.5995C10.0127 14.5995 10.2163 14.6838 10.3664 14.8339L12.2004 16.6689V10.5999C12.2004 10.3877 12.2847 10.1842 12.4347 10.0342C12.5847 9.88419 12.7882 9.7999 13.0004 9.7999C13.2126 9.7999 13.416 9.88419 13.5661 10.0342C13.7161 10.1842 13.8004 10.3877 13.8004 10.5999V16.6689L15.6344 14.8339C15.7845 14.6838 15.9881 14.5995 16.2004 14.5995C16.4127 14.5995 16.6163 14.6838 16.7664 14.8339C16.9165 14.984 17.0008 15.1876 17.0008 15.3999C17.0008 15.6122 16.9165 15.8158 16.7664 15.9659ZM5.49439 6.5999L6.29439 4.9999H19.7064L20.5064 6.5999H5.49439Z" fill="white"/>
</g>
</svg>
