<svg width="26" height="26" viewBox="0 0 26 26" fill="none" xmlns="http://www.w3.org/2000/svg">
<g id="Eye">
<path id="Vector" d="M24.931 12.676C24.896 12.597 24.049 10.718 22.166 8.835C19.657 6.326 16.488 5 13 5C9.51199 5 6.34299 6.326 3.83399 8.835C1.95099 10.718 1.09999 12.6 1.06899 12.676C1.0235 12.7783 1 12.889 1 13.001C1 13.113 1.0235 13.2237 1.06899 13.326C1.10399 13.405 1.95099 15.283 3.83399 17.166C6.34299 19.674 9.51199 21 13 21C16.488 21 19.657 19.674 22.166 17.166C24.049 15.283 24.896 13.405 24.931 13.326C24.9765 13.2237 25 13.113 25 13.001C25 12.889 24.9765 12.7783 24.931 12.676ZM13 17C12.2089 17 11.4355 16.7654 10.7777 16.3259C10.1199 15.8864 9.60722 15.2616 9.30447 14.5307C9.00172 13.7998 8.92251 12.9956 9.07685 12.2196C9.23119 11.4437 9.61215 10.731 10.1716 10.1716C10.731 9.61216 11.4437 9.2312 12.2196 9.07686C12.9956 8.92252 13.7998 9.00173 14.5307 9.30448C15.2616 9.60723 15.8863 10.1199 16.3259 10.7777C16.7654 11.4355 17 12.2089 17 13C17 14.0609 16.5786 15.0783 15.8284 15.8284C15.0783 16.5786 14.0609 17 13 17Z" fill="white"/>
</g>
</svg>
