<svg width="26" height="26" viewBox="0 0 26 26" fill="none" xmlns="http://www.w3.org/2000/svg">
<g id="Video">
<path id="Vector" d="M23.4001 21.0002C23.4001 21.2124 23.3158 21.4159 23.1658 21.5659C23.0158 21.7159 22.8123 21.8002 22.6001 21.8002H3.4001C3.18792 21.8002 2.98444 21.7159 2.83441 21.5659C2.68438 21.4159 2.6001 21.2124 2.6001 21.0002C2.6001 20.788 2.68438 20.5845 2.83441 20.4345C2.98444 20.2845 3.18792 20.2002 3.4001 20.2002H22.6001C22.8123 20.2002 23.0158 20.2845 23.1658 20.4345C23.3158 20.5845 23.4001 20.788 23.4001 21.0002ZM23.4001 5.8002V17.0002C23.4001 17.4245 23.2315 17.8315 22.9315 18.1316C22.6314 18.4316 22.2244 18.6002 21.8001 18.6002H4.2001C3.77575 18.6002 3.36878 18.4316 3.06873 18.1316C2.76867 17.8315 2.6001 17.4245 2.6001 17.0002V5.8002C2.6001 5.37585 2.76867 4.96888 3.06873 4.66882C3.36878 4.36877 3.77575 4.2002 4.2001 4.2002H21.8001C22.2244 4.2002 22.6314 4.36877 22.9315 4.66882C23.2315 4.96888 23.4001 5.37585 23.4001 5.8002ZM16.6001 11.4002C16.6001 11.2656 16.566 11.1331 16.5012 11.0151C16.4363 10.8971 16.3427 10.7974 16.2291 10.7252L11.8291 7.9252C11.7082 7.84836 11.5688 7.80541 11.4256 7.80085C11.2824 7.79628 11.1406 7.83026 11.015 7.89924C10.8894 7.96822 10.7846 8.06966 10.7116 8.19296C10.6387 8.31627 10.6001 8.45691 10.6001 8.6002V14.2002C10.6001 14.3435 10.6387 14.4841 10.7116 14.6074C10.7846 14.7307 10.8894 14.8322 11.015 14.9011C11.1406 14.9701 11.2824 15.0041 11.4256 14.9995C11.5688 14.995 11.7082 14.952 11.8291 14.8752L16.2291 12.0752C16.3427 12.003 16.4363 11.9033 16.5012 11.7853C16.566 11.6673 16.6001 11.5348 16.6001 11.4002Z" fill="white"/>
</g>
</svg>
