<svg width="52" height="52" viewBox="0 0 52 52" fill="none" xmlns="http://www.w3.org/2000/svg">
<g id="Video">
<path id="Vector" d="M47.125 42.25C47.125 42.681 46.9538 43.0943 46.649 43.399C46.3443 43.7038 45.931 43.875 45.5 43.875H6.5C6.06902 43.875 5.6557 43.7038 5.35095 43.399C5.0462 43.0943 4.875 42.681 4.875 42.25C4.875 41.819 5.0462 41.4057 5.35095 41.101C5.6557 40.7962 6.06902 40.625 6.5 40.625H45.5C45.931 40.625 46.3443 40.7962 46.649 41.101C46.9538 41.4057 47.125 41.819 47.125 42.25ZM47.125 11.375V34.125C47.125 34.987 46.7826 35.8136 46.1731 36.4231C45.5636 37.0326 44.737 37.375 43.875 37.375H8.125C7.26305 37.375 6.4364 37.0326 5.8269 36.4231C5.21741 35.8136 4.875 34.987 4.875 34.125V11.375C4.875 10.513 5.21741 9.6864 5.8269 9.0769C6.4364 8.46741 7.26305 8.125 8.125 8.125H43.875C44.737 8.125 45.5636 8.46741 46.1731 9.0769C46.7826 9.6864 47.125 10.513 47.125 11.375ZM33.3125 22.75C33.3124 22.4765 33.2433 22.2075 33.1116 21.9678C32.9798 21.7281 32.7897 21.5256 32.5589 21.3789L23.6214 15.6914C23.3757 15.5353 23.0927 15.4481 22.8018 15.4388C22.5109 15.4296 22.2228 15.4986 21.9677 15.6387C21.7126 15.7788 21.4998 15.9848 21.3516 16.2353C21.2033 16.4858 21.1251 16.7715 21.125 17.0625V28.4375C21.1251 28.7285 21.2033 29.0142 21.3516 29.2647C21.4998 29.5152 21.7126 29.7212 21.9677 29.8613C22.2228 30.0014 22.5109 30.0704 22.8018 30.0612C23.0927 30.0519 23.3757 29.9647 23.6214 29.8086L32.5589 24.1211C32.7897 23.9744 32.9798 23.7719 33.1116 23.5322C33.2433 23.2925 33.3124 23.0235 33.3125 22.75Z" fill="#BCBCC0"/>
</g>
</svg>
