<svg width="36" height="36" viewBox="0 0 36 36" fill="none" xmlns="http://www.w3.org/2000/svg">
<g id="FilmReel">
<path id="Vector" d="M31.5 30.375H25.785C28.7653 28.4973 30.9673 25.6067 31.9861 22.2347C33.0048 18.8628 32.7717 15.2364 31.3297 12.0227C29.8876 8.8089 27.3336 6.22393 24.1375 4.74325C20.9414 3.26258 17.318 2.9858 13.9341 3.96382C10.5501 4.94185 7.63311 7.10889 5.71965 10.0663C3.8062 13.0238 3.025 16.5727 3.51975 20.0602C4.01449 23.5478 5.75192 26.7394 8.41242 29.0479C11.0729 31.3565 14.4775 32.6267 18 32.625H31.5C31.7984 32.625 32.0845 32.5065 32.2955 32.2955C32.5065 32.0845 32.625 31.7984 32.625 31.5C32.625 31.2016 32.5065 30.9155 32.2955 30.7045C32.0845 30.4935 31.7984 30.375 31.5 30.375ZM11.25 20.8125C10.6937 20.8125 10.15 20.6475 9.68747 20.3385C9.22495 20.0295 8.86447 19.5902 8.6516 19.0763C8.43872 18.5624 8.38303 17.9969 8.49155 17.4513C8.60007 16.9057 8.86793 16.4046 9.26127 16.0113C9.6546 15.6179 10.1557 15.3501 10.7013 15.2415C11.2469 15.133 11.8124 15.1887 12.3263 15.4016C12.8402 15.6145 13.2795 15.9749 13.5885 16.4375C13.8976 16.9 14.0625 17.4437 14.0625 18C14.0625 18.7459 13.7662 19.4613 13.2387 19.9887C12.7113 20.5162 11.9959 20.8125 11.25 20.8125ZM18 27.5625C17.4437 27.5625 16.9 27.3975 16.4375 27.0885C15.975 26.7795 15.6145 26.3402 15.4016 25.8263C15.1887 25.3124 15.133 24.7469 15.2415 24.2013C15.3501 23.6557 15.6179 23.1546 16.0113 22.7613C16.4046 22.3679 16.9057 22.1001 17.4513 21.9915C17.9969 21.883 18.5624 21.9387 19.0763 22.1516C19.5902 22.3645 20.0295 22.7249 20.3385 23.1875C20.6476 23.65 20.8125 24.1937 20.8125 24.75C20.8125 25.4959 20.5162 26.2113 19.9887 26.7387C19.4613 27.2662 18.7459 27.5625 18 27.5625ZM18 14.0625C17.4437 14.0625 16.9 13.8975 16.4375 13.5885C15.975 13.2795 15.6145 12.8402 15.4016 12.3263C15.1887 11.8124 15.133 11.2469 15.2415 10.7013C15.3501 10.1557 15.6179 9.6546 16.0113 9.26126C16.4046 8.86793 16.9057 8.60006 17.4513 8.49154C17.9969 8.38302 18.5624 8.43872 19.0763 8.65159C19.5902 8.86446 20.0295 9.22494 20.3385 9.68746C20.6476 10.15 20.8125 10.6937 20.8125 11.25C20.8125 11.9959 20.5162 12.7113 19.9887 13.2387C19.4613 13.7662 18.7459 14.0625 18 14.0625ZM21.9375 18C21.9375 17.4437 22.1025 16.9 22.4115 16.4375C22.7205 15.9749 23.1598 15.6145 23.6737 15.4016C24.1876 15.1887 24.7531 15.133 25.2987 15.2415C25.8443 15.3501 26.3454 15.6179 26.7387 16.0113C27.1321 16.4046 27.3999 16.9057 27.5085 17.4513C27.617 17.9969 27.5613 18.5624 27.3484 19.0763C27.1355 19.5902 26.7751 20.0295 26.3125 20.3385C25.85 20.6475 25.3063 20.8125 24.75 20.8125C24.0041 20.8125 23.2887 20.5162 22.7613 19.9887C22.2338 19.4613 21.9375 18.7459 21.9375 18Z" fill="white"/>
</g>
</svg>
