<svg width="20" height="20" viewBox="0 0 20 20" fill="none" xmlns="http://www.w3.org/2000/svg">
<path d="M11.6665 12.3445V7.6553C11.6665 5.0343 11.6665 3.72381 10.8954 3.39767C10.1243 3.07153 9.21679 3.99819 7.40177 5.85152C6.46183 6.81129 5.92554 7.02382 4.5882 7.02382C3.41865 7.02382 2.83387 7.02382 2.4138 7.31043C1.5418 7.90538 1.67361 9.06824 1.67361 9.99992C1.67361 10.9316 1.54179 12.0945 2.4138 12.6894C2.83387 12.976 3.41865 12.976 4.5882 12.976C5.92555 12.976 6.46183 13.1885 7.40177 14.1483C9.2168 16.0016 10.1243 16.9283 10.8954 16.6022C11.6665 16.276 11.6665 14.9655 11.6665 12.3445Z" stroke="#2A353D" stroke-width="1.5" stroke-linecap="round" stroke-linejoin="round"/>
<path d="M14.1665 7.5C14.6877 8.18306 14.9998 9.05287 14.9998 10C14.9998 10.9471 14.6877 11.8169 14.1665 12.5" stroke="#2A353D" stroke-width="1.5" stroke-linecap="round" stroke-linejoin="round"/>
<path d="M16.6665 5.83325C17.7088 6.97169 18.3332 8.42137 18.3332 9.99992C18.3332 11.5785 17.7088 13.0281 16.6665 14.1666" stroke="#2A353D" stroke-width="1.5" stroke-linecap="round" stroke-linejoin="round"/>
</svg>
